<svg xmlns="http://www.w3.org/2000/svg" viewBox="0 0 61.05569 121.01253">
  <defs>
    <style>
      .cls-1 {
        fill: #231f20;
      }

      .cls-2 {
        fill: #bcbec0;
      }

      .cls-3 {
        fill: #fff;
      }

      .cls-4 {
        fill: #2b2b2b;
      }

      .cls-5 {
        fill: #333;
      }

      .cls-6 {
        fill: #f5c185;
      }

      .cls-7 {
        fill: #e2a971;
      }

      .cls-8 {
        fill: #e6e7e8;
      }

      .cls-9 {
        fill: #d1d3d4;
      }

      .cls-10 {
        fill: #7f2f24;
      }

      .cls-11 {
        fill: #b2026f;
      }

      .cls-12 {
        fill: #e20584;
      }

      .cls-13 {
        fill: #778286;
      }

      .cls-14 {
        fill: #7d3423;
      }

      .cls-15 {
        fill: #a54a38;
      }

      .cls-16 {
        fill: #3c2415;
      }
    </style>
  </defs>
  <g id="Camada_2" data-name="Camada 2">
    <g id="Camada_1-2" data-name="Camada 1">
      <g>
        <g id="right_foot">
          <path class="cls-1" d="M35.53725,107.50168a3.12,3.12,0,0,0,1.53.38547c2.71368.03915,5.52845.16652,7.9913-.00587a16.76814,16.76814,0,0,0,3.38941-.539.96181.96181,0,0,0,.41889-1.58593,4.43114,4.43114,0,0,0-2.8363-1.21122c-.33192-.05467-.65671-.10473-.959-.16652-1.55964-.32116-3.1218-.6412-4.69584-.88643a14.938,14.938,0,0,0-1.55853-.1854c-.13436-.006-.26872-.00713-.40448-.01314-.05229-.00238-.20343.00112-.30452-.00126-.01077-.04992-.01916-.09745-.02377-.11185a8.43084,8.43084,0,0,1-.206-1.085,1.25918,1.25918,0,0,0-1.537-.87329,1.29137,1.29137,0,0,0-.87217,1.53727c.00839.0618.0179.1236.0274.18666-.09759.21657-.18553.44251-.26649.66622-.21769.60792-.37246,1.19206-.452,1.50511A1.93863,1.93863,0,0,0,35.53725,107.50168Z"/>
          <path class="cls-2" d="M34.77819,105.11754c.07956-.31305.23433-.89719.452-1.50511a6.92009,6.92009,0,0,1,.67685,2.17357,2.925,2.925,0,0,1-.36548,1.707,3.054,3.054,0,0,0,1.52567.39414c2.71368.03915,5.52845.16652,7.9913-.00587a1.15177,1.15177,0,0,1-.33192-.84477,3.87121,3.87121,0,0,1,1.30392-2.49137A4.43124,4.43124,0,0,1,48.867,105.7565a1.02882,1.02882,0,0,1,.1949.37023,1.75809,1.75809,0,0,1,.1496,1.00234,2.03732,2.03732,0,0,1-.39484.92823.82058.82058,0,0,1-.19448.25139,1.09529,1.09529,0,0,1-.47845.26719,10.15735,10.15735,0,0,1-2.09416.296,57.92483,57.92483,0,0,1-8.715-.19952,5.829,5.829,0,0,1-2.26543-.53409,1.93757,1.93757,0,0,1-.43735-1.3495A6.41112,6.41112,0,0,1,34.77819,105.11754Z"/>
          <path class="cls-3" d="M39.581,104.22538a2.22434,2.22434,0,0,0,1.14844-.08767l.00825.02783a1.96254,1.96254,0,0,0,.13129.33122.06264.06264,0,0,0,.03229.08962,1.73189,1.73189,0,0,0,1.20927-.20706,4.62188,4.62188,0,0,0,.28369.39064.514.514,0,0,0,.64273.12835,1.46406,1.46406,0,0,0,.28676-.17281c.11842.27837.249.52095.58876.38561a2.57607,2.57607,0,0,0,.38492-.20441c.07354.15981.13715.32437.21461.48278a.05985.05985,0,0,0,.08137.02125c.34088-.22817.2163-.74871.55745-.94948a.05947.05947,0,0,0-.06-.10263c-.01147.00671-.021.01454-.03132.02181a.0597.0597,0,0,0-.09983-.05215,2.59489,2.59489,0,0,1-.56122.37555c-.01789.0102-.03831.02307-.06026.03719a1.41819,1.41819,0,0,0-.4962-.56765.06118.06118,0,0,0-.07215.00922c-.10528.09522-.24342.23671-.39554.3638-.00741-.01943-.01482-.03816-.02237-.05466a1.05967,1.05967,0,0,0-.281-.43846c-.21559-.15436-.52361.03523-.73445.11185-.0597.02181-.12178.047-.18525.0734-.02237-.02894-.044-.05844-.06907-.08529a3.66339,3.66339,0,0,0-.52207-.426c-.07718-.25671-.282-.19407-.46853-.0453-.09843.07857-.18707.17616-.28578.25754-.07536-.21616-.17854-.40505-.38156-.412a1.12981,1.12981,0,0,0-.90055.6226A.06039.06039,0,0,0,39.581,104.22538Zm4.81175.623c.04614-.02853.092-.05677.1373-.08319a3.56076,3.56076,0,0,0,.39917-.25237c-.15324.23042-.13226.56429-.34408.75444C44.518,105.12523,44.45832,104.98374,44.39275,104.8484Zm-.97857-.19281c.0783-.06236.15366-.12835.2279-.19532.02531-.02279.12919-.14261.1633-.1496.16569-.03412.36562.33779.442.48991-.17239.11339-.39945.25936-.537.23741C43.5526,105.01282,43.47458,104.82183,43.41418,104.65559Zm-1.19179-.3213.05006-.01943a2.174,2.174,0,0,1,.57827-.19854c.22916-.00992.34786.2911.43064.504-.267.20189-.56458.32549-.80311.06543A3.10485,3.10485,0,0,1,42.22239,104.33429Zm-1.21751.15911a1.92961,1.92961,0,0,1-.16093-.4365c.17085-.15142.46377-.46223.57562-.33682a.06252.06252,0,0,0,.02279.067l.0158.012a.05085.05085,0,0,0,.04614.03454,3.20225,3.20225,0,0,1,.533.45286A1.71352,1.71352,0,0,1,41.00488,104.4934Zm-1.33552-.38085c.13618-.231.65462-.57646.85707-.42868a.62958.62958,0,0,1,.16876.33388.61307.61307,0,0,1-.09634.04824A2.204,2.204,0,0,1,39.66936,104.11255Z"/>
        </g>
        <path id="right_foot-2" data-name="right_foot" class="cls-4" d="M20.733,54.35442c.10248-1.59893,2.973-1.60956,2.87055,0-.03146.48432-.048.96612-.05481,1.44681l.00546-.02265a9.31169,9.31169,0,0,0,.30619-2.67327,1.03758,1.03758,0,0,1,.26523-.77332A1.3068,1.3068,0,0,1,25.882,51.18746q1.08049.30157,2.11051.68887a1.66954,1.66954,0,0,1,1.9268-.58751c.20427,1.15474,1.52175,6.45515,1.63654,7.29754.07928.58065,10.41864,12.25777,10.77391,17.8413.16946,2.66251.5464,2.47124.08361,5.09488-.61547,3.4891-.96613,7.198-1.2554,10.79055-.15716,1.94917-.29837,3.89946-.46881,5.84821-.10248,1.17333.362,4.2016-.45775,5.04315-1.14845,1.17794-6.15357.57352-6.04171-.25824.63224-4.7034-.43469-9.40875-.65616-14.101a23.497,23.497,0,0,1,.49215-6.55162c.29893-1.26519,1.4717-3.66415.95522-4.95786-.22146-.55423-10.71378-5.88246-11.46823-9.83128C22.717,63.33939,20.46247,58.59,20.733,54.35442Z"/>
        <g id="left_leg">
          <path class="cls-2" d="M13.13893,111.04446c.18358-1.056,1.792-.60847,1.60928.44364l-.00391.02-.00336.04418c-.00979.12262-.02153.24524-.0302.368-.02335.33486-.03733.67027-.04782,1.00569-.02656.85148-.02586,1.70463.007,2.55611a14.93955,14.93955,0,0,0,.22637,2.34583c.03271.1626.06934.32507.11646.48418.02083.07033.04348.13981.06753.209l.00322.00937.01286.03062a.264.264,0,0,0,.01636.03174c.75305.19742.96641,1.42318.05383,1.59907-1.97014.38-2.05319-2.80107-2.13107-4.02893A22.28672,22.28672,0,0,1,13.13893,111.04446Z"/>
          <path class="cls-1" d="M16.38867,109.15542a.82018.82018,0,0,1,1.3632.38714c.09465.242.19686.48055.30368.71712.58037,2.79212,2.10632,5.48427,1.99643,8.34419a3.20533,3.20533,0,0,1-.271.34954,3.28223,3.28223,0,0,1-4.0306.64986,5.11892,5.11892,0,0,1-2.02761-3.85471,45.709,45.709,0,0,1-.38016-5.52356C13.32992,108.69934,15.31265,108.44781,16.38867,109.15542Z"/>
          <path class="cls-3" d="M15.866,111.87133a2.95081,2.95081,0,0,0-.56821.619.07135.07135,0,0,0,.0418.10346c.30256.1064.60974.19686.91859.28215a5.30539,5.30539,0,0,0-.4428.56961.07088.07088,0,0,0,.01105.08528,1.70975,1.70975,0,0,0,.56206.3501,1.41329,1.41329,0,0,0-.179.3041.05339.05339,0,0,0,.01189.06362.0678.0678,0,0,0,.067.0713,6.40722,6.40722,0,0,0,.88405-.12555c.06278-.00657.1064-.09605.03664-.13129a5.96889,5.96889,0,0,0-.5938-.24174c.22874-.251.526-.46125.7564-.68342a.07106.07106,0,0,0-.03076-.11772c-.2595-.071-.52-.13884-.77989-.20819.29851-.23377.66133-.429.81708-.75822a.07149.07149,0,0,0-.0418-.1036c-.34255-.07368-.69475-.12779-1.04247-.17086-.02321-.00293-.04642-.00531-.06949-.00783.37793-.26662.79905-.4825,1.19641-.70746a.07136.07136,0,0,0,.01468-.11088,1.47466,1.47466,0,0,0-.87651-.34981c.356-.16974.66762-.3027.76228-.34213.06781-.02839.0295-.13-.03426-.13171a5.85047,5.85047,0,0,0-2.38176.45091c-.06725.02782-.02992.13086.03426.13156.38813.00406.75906-.045,1.14649-.01971-.08753.04754-.17491.09507-.2609.14513a2.24225,2.24225,0,0,0-.81191.68481.07154.07154,0,0,0,.02517.09648A1.86643,1.86643,0,0,0,15.866,111.87133Zm1.07224-1.59739q-.31668.14052-.625.29879-.24728-.02811-.49551-.04405a2.58475,2.58475,0,0,0-.39386.01189A5.67159,5.67159,0,0,1,16.93828,110.27394Zm-.41875,3.66009c.137.05271.27572.10249.41162.158a3.49817,3.49817,0,0,1-.56248.086A1.3171,1.3171,0,0,1,16.51953,113.934Zm-.09046-1.01142c.25.06739.5004.1331.75053.20035a8.23007,8.23007,0,0,0-.69963.64609l-.01622-.00629c-.123-.0502-.45063-.165-.46838-.3013-.01343-.10193.24146-.32955.31262-.41414A1.338,1.338,0,0,1,16.42907,112.92261Zm-.05844-.16149c-.30214-.08249-.602-.17141-.89873-.2725a2.9643,2.9643,0,0,1,.58554-.59366c.3831.04614.77011.09675,1.14845.17323a3.12859,3.12859,0,0,1-.71138.58234C16.452,112.68506,16.4109,112.72253,16.37063,112.76112Zm-.038-2.04774a1.794,1.794,0,0,1,.92991.27781,10.75891,10.75891,0,0,0-1.241.75711c-.08571-.00965-.17113-.01986-.25642-.033-.10654-.01636-.49467-.04964-.55171-.15408C15.11145,111.37555,15.73363,111.01119,16.3326,110.71338Z"/>
          <path class="cls-5" d="M12.95228,109.31089c1.99111.08878,3.15843.10416,5.15332.10542l4.032-41.20575c3.77013.007,1.5932-3.72357,1.71288-5.56661.11591-1.79929-.18134-3.56768-.202-5.36053a1.06024,1.06024,0,0,0-.00909-.13129,17.63837,17.63837,0,0,0,.16862-2.44034c.00643-1.529-2.57792-1.60229-2.84567-.23294a22.05927,22.05927,0,0,0-7.02335-3.291,1.50809,1.50809,0,0,0-.86476-.0063,16.5773,16.5773,0,0,1-.45832,2.68083c-.25348,1.01674-.56891,2.0181-.86993,3.02323q-.08493.77031-.19183,1.54832c.00126.49159.00252,1.02331.00252,1.59082.00266,7.27824,1.35551,18.39176.56919,26.6083A101.53366,101.53366,0,0,0,12.95228,109.31089Z"/>
          <path class="cls-2" d="M14.61692,116.81955a4.63221,4.63221,0,0,1,1.5974-.427,7.09449,7.09449,0,0,1,2.858.166c1.73161.51019,1.53014,2.22111,1.21919,3.6819a4.00974,4.00974,0,0,1-2.6523.736c-.94208.02713-2.55289.192-3.30468-.50753a2.687,2.687,0,0,1-.27656-2.894A2.65054,2.65054,0,0,1,14.61692,116.81955Z"/>
        </g>
        <path class="cls-6" d="M16.713,56.94366s1.48526,3.55495,2.21272,3.90379a12.70268,12.70268,0,0,0,3.40283.22427.4116.4116,0,0,0,.34381-.625,11.21354,11.21354,0,0,1-1.3674-2.719c.06879-.45426.90587.50921,1.623.44042s.57269-.44042.57269-.44042-2.05809-.72956-2.05809-1.07378a2.09282,2.09282,0,0,0-2.408-1.456A3.15012,3.15012,0,0,0,16.713,56.94366Z"/>
        <g id="box">
          <path class="cls-4" d="M29.4369,108.10191H59.74529a1.3104,1.3104,0,0,1,1.3104,1.3104v10.28987a1.3103,1.3103,0,0,1-1.3103,1.3103H29.4368a1.3102,1.3102,0,0,1-1.3102-1.3102V109.41221A1.3103,1.3103,0,0,1,29.4369,108.10191Z"/>
          <rect class="cls-1" x="40.15571" y="100.11235" width="8.87102" height="28.88967" transform="translate(159.14841 69.96597) rotate(90)"/>
        </g>
        <g id="upper_body">
          <g id="left_arm">
            <path class="cls-6" d="M2.716,31.705l-.004-.01307s.003.05625.00516.11547l.0013-.02847Z"/>
            <path class="cls-6" d="M12.57786,41.07862a6.06588,6.06588,0,0,1-.30724-.63148c-.01957-.04727-.13268-.37161-.16659-.4598-.03392-.12665-.11387-.4129-.126-.45918-.06581-.25223-.127-.50556-.18955-.75864a21.83573,21.83573,0,0,0-.90095-2.85807c-.04333-.10728-.08348-.21582-.12176-.32511-.05589-.21309-.11566-.4248-.1671-.63922-.10848-.45287-.19979-.90985-.29965-1.36463a11.92055,11.92055,0,0,0-.97777-3.02169,2.23867,2.23867,0,0,0-.31912-.45558A1.88178,1.88178,0,0,0,9.38957,28.551a2.05441,2.05441,0,0,0-2.33582-1.64425,6.08793,6.08793,0,0,0-2.57525.92789,4.40787,4.40787,0,0,0-1.74307,2.80922A5.38485,5.38485,0,0,0,2.716,31.705a.33874.33874,0,0,1,.00249.07393c.00119.03385.00237.06756.003.10151.00334.145-.00055.03032-.00431-.073-.00508.08432-.017.183-.01731.18465-.05018.07712-.13357.2179-.16275.25745-.09854.13363-.203.26275-.3055.39309a6.45224,6.45224,0,0,0-.79251,1.27054,12.5939,12.5939,0,0,0-.70072,2.83391c-.005.02486-.04315.19028-.06.26657l-.037.13826c-.08046.31043-.15044.624-.221.93668-.11149.49449-.206.99269-.275,1.495a19.4236,19.4236,0,0,0,.00112,4.74513c.16348,1.49656.59624,4.51941,1.6339,5.68927a2.05224,2.05224,0,0,0,2.40619.52427c.87758-.49417,1.76935-.02767,2.05657-1.0153.2806-.96449.44921-2.21251.71162-3.23841.2781-1.08751.22846-4.33444.68438-5.35493.12145-.27214.23058-.54823.3299-.82689a11.12836,11.12836,0,0,0,.955,2.69671,2.02023,2.02023,0,1,0,3.65383-1.72476Z"/>
          </g>
          <path id="right_forearm" class="cls-6" d="M31.53209,40.647s.09511-5.1182-2.175-7.09972C27.7085,32.108,27.508,28.81093,26.72387,26.85019c-.39318-.98293-.88036-2.36433-1.90941-2.86926-1.16782-.57284-2.49144.12578-3.66985-.76713l2.77333,8.58927,2.37779,6.76337a9.60482,9.60482,0,0,0,4.14983,7.24567C34.54525,48.64806,31.53209,40.647,31.53209,40.647Z"/>
          <g>
            <g id="Body">
              <g>
                <g>
                  <path class="cls-6" d="M9.20727,30.91771c.07837.20245.12426.23909.12148.20411a1.52042,1.52042,0,0,1-.10982-.18793Z"/>
                  <path class="cls-6" d="M22.41718,25.49073a2.7772,2.7772,0,0,0-1.43077-2.10606c-.241-.09334-3.2342.05481-3.28757-.24232-.13256-.7365-.28919-1.57869-.44137-2.30962a5.74442,5.74442,0,0,0-.52019-1.80417,1.54652,1.54652,0,0,0-1.6125.56883,1.47118,1.47118,0,0,0-.31724.13673,1.26854,1.26854,0,0,0-.46986.4761l-.02447.0054a1.50772,1.50772,0,0,0-.49493-.03,1.4096,1.4096,0,0,0-1.18977-.15894,1.52829,1.52829,0,0,0-1.248.19c.07426-.05236-.075-.33728-.24216-.44054q-.04458,1.06626-.136,2.13319c-.08972,1.06806-.2178,2.13479-.38947,3.19271a18.00128,18.00128,0,0,0-3.49519,2.24537c-1.16626.84564,1.23951,2.40969,1.98634,3.42387.03533.04807.06917.09738.10324.14636l-.01638-.04332c.00732.01989.01846.03971.028.0595.01832.02627.03639.05271.05545.07828a.25983.25983,0,0,1,.05437.10965c.04331.0643.08761.12773.1228.18843.20292.35074.39551.70748.592,1.06186a19.22513,19.22513,0,0,0,1.49193,2.383,5.56594,5.56594,0,0,0,5.24958,2.338,5.78461,5.78461,0,0,0,5.07989-4.39075,16.70134,16.70134,0,0,0-.048-4.4271l-.00932-.14021c.00013-.2052.01121-.41025.02249-.61491.00543-.09733.01287-.19444.02013-.2918A2.03838,2.03838,0,0,0,22.41718,25.49073Z"/>
                </g>
                <path class="cls-7" d="M11.00235,21.9094c2.848,3.4673,5.62139,2.02721,6.69649,1.23295-.13256-.7365-.28919-1.57869-.44137-2.30962-.26314-.12931-1.25885-.61066-2.44993-1.09861a1.26854,1.26854,0,0,0-.46986.4761l-.02447.0054a1.50772,1.50772,0,0,0-.49493-.03,1.4096,1.4096,0,0,0-1.18977-.15894,1.52829,1.52829,0,0,0-1.248.19c.07426-.05236-.075-.33728-.24216-.44054Q11.09374,20.84247,11.00235,21.9094Z"/>
                <path class="cls-8" d="M11.72373,60.06429c.04393.02676,1.5086,2.64832,1.91713,2.699.01821.01381.03543.02763.05342.0402a18.73133,18.73133,0,0,0,4.90148,2.54987,10.22649,10.22649,0,0,0,5.75049.07611,9.65246,9.65246,0,0,0,4.84246-3.08878c1.29359-1.56954,2.58176-4.87055,1.7774-6.87409-1.9128-4.9065-2.449-11.30592-4.43351-18.498a17.24918,17.24918,0,0,0-2.03429-6.02883A34.66776,34.66776,0,0,1,22.44,27.07294a32.44049,32.44049,0,0,1-1.29536-3.85914,9.62346,9.62346,0,0,0-.96711.086c.279.99185.57683,1.97612.84332,2.9712a20.88637,20.88637,0,0,1,.87548,4.74681c-.15254,2.63607-2.90546,3.82286-5.44239,4.354-5.742,1.20211-6.404-4.93578-8.20646-8.84339-.49582.17081-.897.30836-.97732.33907-.315.125-.62866.26425-.9396.41395.72695,1.79341,1.77827,3.4411,2.54406,5.21846a11.91282,11.91282,0,0,1,1.08485,5.86226c-.06172.706-.154,1.43706-.28548,2.1723a18.77963,18.77963,0,0,1-.55349,2.284c.03727.16216.07365.32575.11192.49129.01919.08354.0385.16692.05656.2505.00426.016.00841.03219.01113.04747.02459.10886.04972.21919.07466.32926.01176.0546.02387.1104.03684.16465q.0549.23979.10852.48377c.06814.304.13557.61052.20489.919q.02841.1307.057.26135.07457.33622.14886.67591c.01676.07416.03244.14865.04969.224.0807.37178.16189.74475.2424,1.11542.03226.14755.06449.295.09532.44162.05119.23964.10263.4791.15436.7161q.07288.34395.14489.67927c.00849.04195.01666.08283.02591.12338.01734.08513.03542.16885.05317.25136l.01635.07679c.01178.05473.02244.1095.03387.163.02322.10824.045.21545.06764.32124l.01448.06987c.01776.08264.4303,2.50715.4471,2.59.01721.08019.03286.1595.04974.23861.08278.39837.16175.78178.23688,1.14655.01529.07215.0303.14434.044.21561.00661.035.01482.07109.02144.10613.00818.03591.0148.071.02144.10613l.00786.03483c.01119.0571.02242.11448.03471.17139.01287.06787.02646.13421.04011.20081.01837.08964.035.17743.05268.26364.05833.29544.11266.56971.16054.82.0107.05505.02071.10767.03039.15921.064.3356.11541.623.15492.84971.00963.06133.01941.11767.028.16953.01508.1004.02713.18443.03592.25087l.00561.0501.00476.04669c.00086.01687.00215.03126.00155.0437a.152.152,0,0,1-.00114.02855C12.13811,58.51257,11.43579,59.89634,11.72373,60.06429Z"/>
              </g>
              <path class="cls-9" d="M11.95811,60.02477c.04393.02676.0881.05079.13439.073A19.05662,19.05662,0,0,0,13.259,56.82468c.84485-5.9618-1.44256-12.31277-3.58507-16.29023a18.77963,18.77963,0,0,1-.55349,2.284c.03727.16216.07365.32575.11192.49129.01919.08354.0385.16692.05656.2505.00426.016.00841.03219.01113.04747.02459.10886.04972.21919.07466.32926.01176.0546.02387.1104.03684.16465q.0549.23979.10852.48377c.06814.304.13557.61052.20489.919q.02841.1307.057.26135.07457.33622.14886.67591c.01676.07416.03277.14973.04969.224.0807.37178.16189.74475.2424,1.11542.03226.14755.06449.295.09532.44162.05119.23964.10263.4791.15436.7161.04859.2293.09642.45491.14489.67927.00849.04195.01666.08283.02591.12338.01734.08513.03542.16885.05317.25136l.01635.07679c.01178.05473.02244.1095.03387.163.02322.10824.04606.21513.06764.32124l.01448.06987c.01755.0814.035.16283.05129.24444l.00067.0023c.01721.08019.03411.15943.04976.23875.08277.39836.16173.78164.23685,1.14641.01529.07215.0303.14434.044.21561.00664.03518.01482.07109.02146.10627.00819.03591.0148.071.02145.10613l.00785.03483c.01154.05832.02273.11541.03472.17138.01286.06788.02646.13421.04008.20068.0184.08977.035.17743.0527.26378.05833.29543.11267.56971.16054.82.01033.05369.02071.10767.03037.15907.064.33574.11541.623.15494.84985.00963.06133.01942.11767.028.16939.01509.1004.02715.18457.03595.251l.00561.0501.00473.04656c.00089.017.00218.0314.00158.04383a.15191.15191,0,0,1-.00114.02855C11.743,56.16935,11.67,59.85683,11.95811,60.02477Z"/>
            </g>
            <g id="Head">
              <g>
                <g>
                  <path class="cls-10" d="M4.519,6.78453c.89792-1.23618,2.32776-2.26959,3.838-1.40627.72055.41193.05537,1.51385-.664,1.10249a1.36528,1.36528,0,0,0-1.70155.482.60043.60043,0,0,1,.56727.63423,24.99566,24.99566,0,0,0-.22337,2.84008.52851.52851,0,0,1-.568.599c.26375.58669.57433,1.15253.83494,1.676a14.15068,14.15068,0,0,0,2.177,3.48981c.32435.341.66178.66911.98434,1.01157.21241.22546.57161.53332.6132.86283.09869.78065-1.05023,1.10486-1.2309.39844.00254.00442.00167-.00545-.00667-.02341-.00461-.02089-.00861-.04223-.01139-.065a.61707.61707,0,0,0,.01085.064.20415.20415,0,0,0-.02686-.042c-.07222-.08666-.15024-.16828-.22715-.25061-.20841-.22327-.42446-.43961-.6382-.65768A9.53143,9.53143,0,0,1,7.2229,16.32538,27.33675,27.33675,0,0,1,4.39876,10.9788,4.28127,4.28127,0,0,1,4.519,6.78453Z"/>
                  <path class="cls-10" d="M9.14583,18.47469l-.00523-.01527Z"/>
                </g>
                <polygon class="cls-10" points="9.141 18.459 9.139 18.45 9.139 18.451 9.141 18.459"/>
              </g>
              <path class="cls-6" d="M8.73034,17.43976c-.32939-.53365-.71963-.31247-1.12488-.558A2.84468,2.84468,0,0,1,6.23574,14.328a1.60305,1.60305,0,0,1,1.448-1.42631c.04158-.002.08275-.00209.12377-.001a5.40353,5.40353,0,0,0-.48722-1.00877c-.10216-.40523-.19572-.80828-.28562-1.20935.04228-.19647.08543-.39288.14524-.58549.32461-1.04274,1.65528-1.74556,2.65077-2.05532,2.49072-.775,5.48908-.09619,7.54867-2.01442.06882.11243.13359.22773.19341.34686.80763,2.08718.78916,4.53917,1.041,6.71158.06625.57218.15682,1.13962.24176,1.70355a15.74164,15.74164,0,0,0,.20156,1.63214l.00155.0074a7.45569,7.45569,0,0,1-.316,3.10653,4.33221,4.33221,0,0,1-.18813,1.24612c-.3609,1.10664-1.50859,1.46368-2.52551,1.71379a3.75861,3.75861,0,0,1-2.93159-.09175A16.38971,16.38971,0,0,1,10.605,20.4078,12.72215,12.72215,0,0,1,8.73034,17.43976Z"/>
              <path class="cls-10" d="M6.40811,10.45772a1.12839,1.12839,0,0,1,.52246-.78485,1.05476,1.05476,0,0,1,1.40237.3928c.9383,1.29153.50835,2.54423.21915,3.86082-.17387.79168.22868,1.02987.499,1.65743.09225.21436.13816,1.44345-.542.912a4.6151,4.6151,0,0,1-1.13375-1.19331C6.76,14.24756,4.51708,10.676,4.51708,10.676Z"/>
              <path class="cls-10" d="M5.48331,6.85028a.6695.6695,0,0,1,.78023-.53566.77259.77259,0,0,1,.3831-.35036,2.74559,2.74559,0,0,1,.18412-1.2408.81261.81261,0,0,1,.77008-.55273,1.26252,1.26252,0,0,1,1.01734-.8845,1.99017,1.99017,0,0,1,1.4494.299,1.52545,1.52545,0,0,1,.13232-.16337,1.54509,1.54509,0,0,1,1.46421-.48113,1.30854,1.30854,0,0,1,.97872-1.27049,2.08611,2.08611,0,0,1,1.57738.27834,2.9209,2.9209,0,0,1,.10419-1.38.86446.86446,0,0,1,.28377-.45046.89855.89855,0,0,1,.56121-.11625,3.913,3.913,0,0,1,2.09411.716A1.47342,1.47342,0,0,1,18.942.28016,2.07964,2.07964,0,0,1,19.9902,2.46063a2.12157,2.12157,0,0,1-.331.90891,1.13341,1.13341,0,0,1,1.55255.12259,1.64048,1.64048,0,0,1,.04521,1.86413,3.04291,3.04291,0,0,1-1.093,1.012.666.666,0,0,1,.33023.13254A1.11181,1.11181,0,0,1,19.314,8.36948a.69166.69166,0,0,1-.1045,1.099,1.12293,1.12293,0,0,1-1.295-.29384,1.33778,1.33778,0,0,1-.3911-.85716,1.06554,1.06554,0,0,1-1.39924.40508c-.57932-.28406-.9676-.86577-1.54206-1.15982a7.33955,7.33955,0,0,1-4.74825,3.32115,1.742,1.742,0,0,1-1.70913-.37328.86612.86612,0,0,1-.14749.01284c-.01181,0-.02289-.00166-.03459-.00179a.7722.7722,0,0,1-1.12109.3516.73887.73887,0,0,1-.9341-.09934C4.896,9.82062,5.19632,8.04229,5.48331,6.85028Z"/>
            </g>
          </g>
          <path id="right_arm" class="cls-6" d="M30.49791,41.07516c.03793-.01051,6.01123-1.08516,6.78864-1.18365,1.31908-.16728,6.08855-1.72222,6.38136-1.62626.47767,1.13076.77572,1.32.47256,2.38944-.58613.40879-8.37945,5.35864-10.21357,5.54656a19.71741,19.71741,0,0,1-2.23337.20662c-.21382-.19846-1.04213-.38745-1.248-.59576C30.75058,45.6668,30.5102,41.518,30.49791,41.07516Z"/>
          <g>
            <path class="cls-11" d="M29.8403,54.4811l.67012,1.28575s-1.22074,1.8502.64534,2.21752c1.86619.36716-3.20106.92732-3.20106.92732l-.80278-3.59681Z"/>
            <path class="cls-11" d="M15.17571,74.20149S5.49807,68.2456,8.80361,62.19766c3.30566-6.04811,9.94018-5.75441,11.30876-7.45018S21.8416,45.78842,23.866,44.73086a31.68436,31.68436,0,0,1,3.22172-1.15795c.866.94077,1.53561,1.55652.254,2.31584-1.254.7429-2.42586.72825-2.17506,3.00918s3.575,4.032,3.575,4.032L27.526,57.88016a14.08548,14.08548,0,0,0,8.11785-.846c.52235-.206.98312,1.17852.83793,1.72082-.6034,2.25455-3.58089,3.35657-6.02431,4.83331-2.85417,1.72481.66052,8.29745-4.36529,11.85032S15.17571,74.20149,15.17571,74.20149Z"/>
            <path class="cls-12" d="M14.68147,73.25332s-9.67764-5.95589-6.372-12.00386,9.94-5.75439,11.30862-7.45015,1.72937-8.95909,3.75359-10.01662c3.14136-1.64123,4.996.25723,3.47571,1.15789-1.254.7429-2.42572.72822-2.17493,3.00916s3.57485,4.032,3.57485,4.032L29.285,56.79985s1.22534,1.99777,5.77742.20216a.68767.68767,0,0,1,.925.80463c-.60324,2.25466-3.58089,3.35656-6.0243,4.83331-2.85416,1.72494.66053,8.29758-4.36527,11.85045S14.68147,73.25332,14.68147,73.25332Z"/>
            <path class="cls-3" d="M15.24167,64.217s-4.24113-2.3605.14811-5.23773c2.96028-1.94064,4.529-1.35089,6.41945-5.12355a1.8374,1.8374,0,0,1,2.89394-.53381,22.5748,22.5748,0,0,1,1.80848,1.873l1.29794,2.13058a6.02878,6.02878,0,0,0,3.42768,1.24894c3.01243.07631-2.79479,2.19134-3.23317,3.64106-.43855,1.44959-.874,10.897-3.557,10.37509s-3.75287-5.01447-4.52314-5.93638S16.27448,64.77038,15.24167,64.217Z"/>
            <path class="cls-3" d="M14.94839,64.53957s-1.734,1.14288,1.49307,4.179c5.27974,4.96784,6.749-1.82677,6.749-1.82677l-5.19291-5.27358Z"/>
            <path class="cls-13" d="M19.76769,68.37119c-.42139.21952-1.36322-.2685-2.39916-1.24315a9.035,9.035,0,0,1-.81914-.86617.93806.93806,0,0,1,.08193-1.26808l.20594-.19722a1.04751,1.04751,0,0,1,1.47087.0215L20.09,66.62769a1.04971,1.04971,0,0,1,.0716,1.38981,1.31379,1.31379,0,0,1-.39381.35367Z"/>
            <path class="cls-13" d="M25.65168,62.33336l-3.84492-3.629a.53463.53463,0,0,1-.02183-.75588h0a.53448.53448,0,0,1,.75574-.02182l3.84492,3.629a.53461.53461,0,0,1,.02181.75575h0A.53462.53462,0,0,1,25.65168,62.33336Z"/>
            <path class="cls-13" d="M23.84032,64.32612l-3.84492-3.629a.53453.53453,0,0,1-.02181-.75575h0a.53474.53474,0,0,1,.75575-.02181l3.84492,3.629a.53482.53482,0,0,1,.02183.75589h0A.53455.53455,0,0,1,23.84032,64.32612Z"/>
            <path class="cls-13" d="M22.029,66.31915l-3.84492-3.629a.53468.53468,0,0,1-.02183-.75589h0a.53462.53462,0,0,1,.75575-.02181l3.84491,3.629a.5346.5346,0,0,1,.02181.75575h0A.53462.53462,0,0,1,22.029,66.31915Z"/>
            <path class="cls-14" d="M44.96134,31.48086l-.17-.32637a1.19359,1.19359,0,0,1,.438-1.57131l6.532-3.97432a1.56467,1.56467,0,0,1,1.81606.13543h0a1.56475,1.56475,0,0,1,.419,1.85484l-.08815.192a1.56487,1.56487,0,0,1-1.30412.90674h0a3.01078,3.01078,0,0,0-2.59241,1.9444l-.51382,1.369A1.8616,1.8616,0,0,1,47.605,33.21279L46.55675,33.128Z"/>
            <path class="cls-14" d="M23.80038,57.89334l1.998,1.95339a.5876.5876,0,0,0,.87841-.06461L47.1109,32.90619l-2.14956-1.42533L23.75854,57.09871A.58753.58753,0,0,0,23.80038,57.89334Z"/>
            <polygon class="cls-15" points="24.059 57.481 45.055 32.113 46.426 33.022 26.221 59.596 24.059 57.481"/>
            <rect class="cls-16" x="44.89053" y="28.82059" width="0.47518" height="2.10407" transform="translate(-8.69727 24.23806) rotate(-27.52654)"/>
            <rect class="cls-16" x="46.05678" y="27.686" width="0.47525" height="2.10418" transform="translate(-8.04056 24.64409) rotate(-27.52174)"/>
            <rect class="cls-16" x="47.33299" y="26.76231" width="0.47513" height="2.10402" transform="translate(-7.46957 25.13498) rotate(-27.52771)"/>
            <rect class="cls-16" x="48.60909" y="25.83854" width="0.47525" height="2.10404" transform="translate(-6.89804 25.61554) rotate(-27.52292)"/>
            <rect class="cls-16" x="49.88517" y="24.91466" width="0.47522" height="2.10415" transform="translate(-6.32672 26.10423) rotate(-27.52654)"/>
            <rect class="cls-16" x="51.27114" y="24.20157" width="0.47518" height="2.1042" transform="translate(-5.8403 26.66287) rotate(-27.52537)"/>
          </g>
          <path id="right_hand" class="cls-6" d="M44.04924,40.64862l1.3017-1.61878a2.1995,2.1995,0,0,0,.4418-1.94049c-.45417-1.9672-.65771-5.29531-1.43522-5.285-.47243.00641.31063,2.69548.40162,2.84353,0,0-.40162-2.84353-.99806-2.838-.30856.00266.61732,3.30827.61732,3.30827s-.371-3.333-1.13959-2.69822c-.32618.26968.65165,3.09916.65165,3.09916s-1.03992-2.7105-1.18588-2.32509c-.142.37434.51973,2.83167.78313,4.5982C43.70074,39.21959,44.04924,40.64862,44.04924,40.64862Z"/>
          <g id="left_arm-2" data-name="left_arm">
            <path class="cls-6" d="M17.751,58.61457c-3.37251-2.04928-9.32609-2.705-12.71321-4.72909-1.02768-.39343-2.44946-.71076-3.16619-1.5464-.86658-1.01045-.72065-4.79475-.91328-4.87513,1.58923-1.50979,4.87666,2.93916,5.52233.87557,1.59148,1.21517,12.25076,7.1561,12.28989,7.61684C18.88886,57.36069,18.3234,58.96242,17.751,58.61457Z"/>
            <path class="cls-6" d="M24.31807,62.31523a1.84741,1.84741,0,0,0-.78909-1.1748c.25575.1066.51488.20625.77943.29436.4856.16213.6315-.529.28283-.77125q-.19179-.13335-.38148-.26944a.40624.40624,0,0,0,.10276-.66361,11.0141,11.0141,0,0,0-2.32732-1.7816,5.21921,5.21921,0,0,0,.64617.14229.41626.41626,0,0,0,.28265-.7715c-1.12167-.643-2.31133-1.14695-3.48-1.69611-.33939-.15942-1.5277-.37958-1.50016-.09852-.02842.00635.839.5503.80967.55355a.4169.4169,0,0,0-.22938.09441.83437.83437,0,0,0-1.12642.64042c-.54035,2.83276,2.23775,4.11425,3.92968,5.71572.35363.33469.84261-.118.63511-.52027-.10027-.19436-.19587-.39135-.292-.58783.71206.37746,1.335.90338,2.05193,1.276C23.96335,62.8275,24.369,62.63461,24.31807,62.31523Z"/>
          </g>
        </g>
      </g>
    </g>
  </g>
</svg>
