<svg xmlns="http://www.w3.org/2000/svg" viewBox="0 0 61.0557 121.0125">
  <defs>
    <style>
      .cls-1 {
        fill: #231f20;
      }

      .cls-2 {
        fill: #bcbec0;
      }

      .cls-3 {
        fill: #fff;
      }

      .cls-4 {
        fill: #2b2b2b;
      }

      .cls-5 {
        fill: #333;
      }

      .cls-6 {
        fill: #f5c185;
      }

      .cls-7 {
        fill: #e2a971;
      }

      .cls-8 {
        fill: #e6e7e8;
      }

      .cls-9 {
        fill: #d1d3d4;
      }

      .cls-10 {
        fill: #7f2f24;
      }

      .cls-11 {
        fill: #b2026f;
      }

      .cls-12 {
        fill: #e20584;
      }

      .cls-13 {
        fill: #778286;
      }

      .cls-14 {
        fill: #7d3423;
      }

      .cls-15 {
        fill: #a54a38;
      }

      .cls-16 {
        fill: #3c2415;
      }
    </style>
  </defs>
  <g id="Camada_2" data-name="Camada 2">
    <g id="Camada_1-2" data-name="Camada 1">
      <g>
        <g id="right_foot">
          <path class="cls-1" d="M35.5372,107.5017a3.1205,3.1205,0,0,0,1.53.3854c2.7136.0392,5.5284.1666,7.9913-.0058a16.7683,16.7683,0,0,0,3.3894-.539.9618.9618,0,0,0,.4188-1.5859,4.431,4.431,0,0,0-2.8363-1.2113c-.3319-.0546-.6567-.1047-.9589-.1665-1.56-.3211-3.1218-.6412-4.6959-.8864a14.9209,14.9209,0,0,0-1.5585-.1854c-.1344-.006-.2687-.0071-.4045-.0132-.0523-.0023-.2034.0012-.3045-.0012-.0108-.05-.0192-.0975-.0238-.1119a8.4223,8.4223,0,0,1-.2059-1.0849,1.2591,1.2591,0,0,0-1.537-.8733,1.2914,1.2914,0,0,0-.8722,1.5373c.0084.0618.0179.1235.0274.1866-.0976.2166-.1855.4425-.2665.6662-.2177.6079-.3725,1.1921-.452,1.5051A1.9387,1.9387,0,0,0,35.5372,107.5017Z"/>
          <path class="cls-2" d="M34.7782,105.1175c.08-.313.2343-.8972.452-1.5051a6.9221,6.9221,0,0,1,.6769,2.1736,2.9249,2.9249,0,0,1-.3655,1.707,3.0531,3.0531,0,0,0,1.5257.3941c2.7136.0392,5.5284.1666,7.9913-.0058a1.1519,1.1519,0,0,1-.332-.8448,3.8718,3.8718,0,0,1,1.3039-2.4914,4.4315,4.4315,0,0,1,2.8365,1.2114,1.03,1.03,0,0,1,.1949.37,1.7586,1.7586,0,0,1,.15,1.0024,2.0383,2.0383,0,0,1-.3948.9282.8229.8229,0,0,1-.1945.2514,1.0952,1.0952,0,0,1-.4785.2672,10.16,10.16,0,0,1-2.0941.296,57.934,57.934,0,0,1-8.715-.2,5.83,5.83,0,0,1-2.2655-.5341,1.9382,1.9382,0,0,1-.4373-1.35A6.4108,6.4108,0,0,1,34.7782,105.1175Z"/>
          <path class="cls-3" d="M39.581,104.2254a2.2238,2.2238,0,0,0,1.1484-.0877l.0083.0278a1.961,1.961,0,0,0,.1313.3313.0626.0626,0,0,0,.0323.09,1.7316,1.7316,0,0,0,1.2092-.2071,4.6473,4.6473,0,0,0,.2837.3907.5141.5141,0,0,0,.6428.1283,1.4656,1.4656,0,0,0,.2867-.1728c.1184.2784.249.521.5888.3856a2.5792,2.5792,0,0,0,.3849-.2044c.0735.16.1372.3244.2146.4828a.06.06,0,0,0,.0814.0212c.3409-.2281.2163-.7487.5574-.95a.06.06,0,0,0-.06-.1026c-.0114.0067-.0209.0146-.0313.0218a.06.06,0,0,0-.1-.0521,2.5944,2.5944,0,0,1-.5612.3755c-.0179.01-.0383.0231-.06.0372a1.4173,1.4173,0,0,0-.4962-.5676.061.061,0,0,0-.0721.0092c-.1053.0952-.2434.2367-.3956.3638-.0074-.0194-.0148-.0382-.0223-.0547a1.06,1.06,0,0,0-.2811-.4384c-.2156-.1544-.5236.0352-.7344.1118-.06.0218-.1218.047-.1853.0734-.0223-.0289-.044-.0584-.069-.0853a3.6683,3.6683,0,0,0-.5221-.426c-.0772-.2567-.282-.194-.4685-.0453-.0985.0786-.1871.1762-.2858.2576-.0754-.2162-.1786-.4051-.3816-.4121a1.13,1.13,0,0,0-.9005.6226A.06.06,0,0,0,39.581,104.2254Zm4.8117.623c.0462-.0285.092-.0568.1373-.0832a3.5479,3.5479,0,0,0,.3992-.2524c-.1532.2305-.1322.5643-.3441.7545C44.518,105.1252,44.4583,104.9837,44.3927,104.8484Zm-.9785-.1928c.0783-.0624.1536-.1284.2279-.1953.0253-.0228.1292-.1426.1633-.15.1657-.0341.3656.3378.4419.49-.1724.1134-.3994.2593-.537.2374C43.5526,105.0128,43.4746,104.8218,43.4142,104.6556Zm-1.1918-.3213.05-.0194a2.1767,2.1767,0,0,1,.5783-.1986c.2292-.01.3479.2911.4307.5041-.2671.2019-.5646.3254-.8031.0654A3.0889,3.0889,0,0,1,42.2224,104.3343Zm-1.2175.1591a1.9278,1.9278,0,0,1-.1609-.4365c.1708-.1514.4637-.4622.5756-.3368a.0624.0624,0,0,0,.0228.067l.0158.012a.0507.0507,0,0,0,.0461.0345,3.207,3.207,0,0,1,.533.4529A1.7137,1.7137,0,0,1,41.0049,104.4934Zm-1.3355-.3809c.1361-.2309.6546-.5764.857-.4286a.1945.1945,0,1,1,.0725.3821A2.2041,2.2041,0,0,1,39.6694,104.1125Z"/>
        </g>
        <path id="right_foot-2" data-name="right_foot" class="cls-4" d="M20.733,54.3544c.1025-1.5989,2.9731-1.6095,2.8706,0-.0315.4843-.048.9661-.0548,1.4468l.0054-.0226a9.3113,9.3113,0,0,0,.3062-2.6733,1.038,1.038,0,0,1,.2652-.7733,1.3068,1.3068,0,0,1,1.7564-1.1445q1.08.3015,2.11.6888a1.67,1.67,0,0,1,1.9268-.5875c.2043,1.1548,1.5218,6.4552,1.6366,7.2976.0792.5806,10.4186,12.2577,10.7739,17.8413.1694,2.6625.5464,2.4712.0836,5.0948-.6155,3.4891-.9661,7.198-1.2554,10.7906-.1572,1.9492-.2984,3.8994-.4688,5.8482-.1025,1.1733.362,4.2016-.4578,5.0431-1.1484,1.178-6.1535.5736-6.0417-.2582.6323-4.7034-.4347-9.4087-.6561-14.101a23.494,23.494,0,0,1,.4921-6.5516c.2989-1.2652,1.4717-3.6641.9552-4.9578-.2214-.5543-10.7138-5.8825-11.4682-9.8313C22.717,63.3394,20.4625,58.59,20.733,54.3544Z"/>
        <g id="left_leg">
          <path class="cls-2" d="M13.1389,111.0445c.1836-1.0561,1.792-.6085,1.6093.4436l-.0039.02-.0034.0442c-.01.1226-.0215.2452-.03.368-.0233.3348-.0373.67-.0478,1.0057-.0265.8514-.0258,1.7046.007,2.5561a14.9378,14.9378,0,0,0,.2264,2.3458c.0327.1626.0693.3251.1164.4842.0209.07.0435.14.0676.209l.0032.0094.0129.0306a.25.25,0,0,0,.0163.0317c.7531.1974.9664,1.4232.0538,1.5991-1.97.38-2.0532-2.8011-2.131-4.0289A22.2843,22.2843,0,0,1,13.1389,111.0445Z"/>
          <path class="cls-1" d="M16.3887,109.1554a.82.82,0,0,1,1.3632.3872c.0946.242.1968.4805.3036.7171.58,2.7921,2.1064,5.4842,1.9965,8.3442a3.2148,3.2148,0,0,1-.271.35,3.2823,3.2823,0,0,1-4.0306.65,5.1191,5.1191,0,0,1-2.0276-3.8547,45.7049,45.7049,0,0,1-.38-5.5236C13.33,108.6993,15.3126,108.4478,16.3887,109.1554Z"/>
          <path class="cls-3" d="M15.866,111.8713a2.9553,2.9553,0,0,0-.5682.619.0714.0714,0,0,0,.0418.1035c.3026.1064.61.1968.9186.2821a5.2979,5.2979,0,0,0-.4428.57.0708.0708,0,0,0,.0111.0853,1.7083,1.7083,0,0,0,.562.35,1.4143,1.4143,0,0,0-.1789.3041.0534.0534,0,0,0,.0118.0636.0679.0679,0,0,0,.067.0713,6.422,6.422,0,0,0,.8841-.1255c.0628-.0066.1064-.0961.0366-.1313a5.965,5.965,0,0,0-.5938-.2418c.2287-.2509.526-.4612.7564-.6834a.0711.0711,0,0,0-.0307-.1177c-.26-.071-.52-.1388-.78-.2082.2985-.2338.6613-.4289.817-.7582a.0714.0714,0,0,0-.0418-.1036c-.3425-.0737-.6947-.1278-1.0424-.1709-.0232-.0029-.0464-.0053-.07-.0078.3779-.2666.799-.4825,1.1964-.7075a.0713.0713,0,0,0,.0147-.1108,1.4754,1.4754,0,0,0-.8765-.35c.3559-.17.6676-.3027.7622-.3421.0678-.0284.0295-.13-.0342-.1317a5.8511,5.8511,0,0,0-2.3818.4509c-.0672.0278-.03.1309.0343.1316.3881.004.759-.045,1.1465-.02-.0876.0475-.1749.095-.2609.1451a2.2417,2.2417,0,0,0-.8119.6848.0716.0716,0,0,0,.0251.0965A1.867,1.867,0,0,0,15.866,111.8713Zm1.0723-1.5974q-.3167.1405-.625.2988-.2472-.028-.4955-.044a2.5843,2.5843,0,0,0-.3939.0119A5.67,5.67,0,0,1,16.9383,110.2739Zm-.4188,3.66c.1371.0527.2758.1025.4117.158a3.4954,3.4954,0,0,1-.5625.086A1.3181,1.3181,0,0,1,16.52,113.934Zm-.09-1.0114c.25.0674.5.1331.7505.2a8.1933,8.1933,0,0,0-.7.6461l-.0163-.0063c-.123-.05-.4506-.165-.4683-.3013-.0135-.102.2414-.33.3126-.4142A1.34,1.34,0,0,1,16.4291,112.9226Zm-.0585-.1615c-.3021-.0825-.602-.1714-.8987-.2725a2.9651,2.9651,0,0,1,.5855-.5936c.3831.0461.77.0967,1.1485.1732a3.13,3.13,0,0,1-.7114.5823C16.452,112.6851,16.4109,112.7225,16.3706,112.7611Zm-.038-2.0477a1.7933,1.7933,0,0,1,.93.2778,10.765,10.765,0,0,0-1.241.7571c-.0857-.01-.1711-.02-.2564-.033-.1065-.0164-.4947-.05-.5517-.1541C15.1115,111.3755,15.7336,111.0112,16.3326,110.7134Z"/>
          <path class="cls-5" d="M12.9523,109.3109c1.9911.0888,3.1584.1042,5.1533.1054l4.032-41.2057c3.77.007,1.5932-3.7236,1.7129-5.5667.1159-1.7992-.1814-3.5676-.202-5.3605a1.0769,1.0769,0,0,0-.0091-.1313,17.6362,17.6362,0,0,0,.1686-2.44c.0064-1.529-2.5779-1.6023-2.8457-.2329a22.0569,22.0569,0,0,0-7.0233-3.291,1.5083,1.5083,0,0,0-.8648-.0063,16.5772,16.5772,0,0,1-.4583,2.6808c-.2535,1.0167-.5689,2.0181-.87,3.0232q-.0851.77-.1919,1.5484c.0013.4915.0025,1.0233.0025,1.5908.0027,7.2782,1.3556,18.3917.5692,26.6083A101.5362,101.5362,0,0,0,12.9523,109.3109Z"/>
          <path class="cls-2" d="M14.6169,116.82a4.6349,4.6349,0,0,1,1.5974-.427,7.0952,7.0952,0,0,1,2.858.166c1.7316.51,1.53,2.2211,1.2192,3.6819a4.0093,4.0093,0,0,1-2.6523.736c-.9421.0271-2.5529.192-3.3047-.5075a2.6873,2.6873,0,0,1-.2766-2.8941A2.6528,2.6528,0,0,1,14.6169,116.82Z"/>
        </g>
        <path class="cls-6" d="M16.713,56.9437s1.4853,3.5549,2.2128,3.9038a12.7049,12.7049,0,0,0,3.4028.2242.4116.4116,0,0,0,.3438-.625,11.2123,11.2123,0,0,1-1.3674-2.719c.0688-.4542.9059.5093,1.623.4405s.5727-.4405.5727-.4405-2.0581-.73-2.0581-1.0737a2.0929,2.0929,0,0,0-2.4081-1.4561A3.15,3.15,0,0,0,16.713,56.9437Z"/>
        <g id="box">
          <path class="cls-4" d="M29.4369,108.1019H59.7453a1.31,1.31,0,0,1,1.31,1.31v10.29a1.31,1.31,0,0,1-1.31,1.31H29.4368a1.31,1.31,0,0,1-1.31-1.31v-10.29A1.31,1.31,0,0,1,29.4369,108.1019Z"/>
          <rect class="cls-1" x="40.1557" y="100.1124" width="8.871" height="28.8897" transform="translate(159.1484 69.966) rotate(90)"/>
        </g>
        <g id="upper_body">
          <g id="left_arm">
            <path class="cls-6" d="M2.716,31.705l-.004-.0131s.003.0563.0052.1155l.0013-.0285Z"/>
            <path class="cls-6" d="M12.5779,41.0786a6.0618,6.0618,0,0,1-.3073-.6315c-.02-.0472-.1327-.3716-.1666-.46-.0339-.1266-.1138-.4129-.126-.4591-.0658-.2523-.127-.5056-.19-.7587a21.8216,21.8216,0,0,0-.9009-2.8581c-.0433-.1072-.0835-.2158-.1218-.3251-.0559-.213-.1156-.4248-.1671-.6392-.1084-.4528-.2-.91-.3-1.3646a11.9171,11.9171,0,0,0-.9778-3.0217,2.2375,2.2375,0,0,0-.3191-.4556A1.882,1.882,0,0,0,9.39,28.551a2.0545,2.0545,0,0,0-2.3358-1.6443,6.0879,6.0879,0,0,0-2.5753.9279,4.408,4.408,0,0,0-1.7431,2.8092A5.3845,5.3845,0,0,0,2.716,31.705a.3424.3424,0,0,1,.0025.0739c.0012.0339.0023.0676.003.1015.0033.1451-.0006.03-.0043-.073-.0051.0843-.017.183-.0173.1847-.05.0771-.1336.2179-.1628.2574-.0985.1336-.203.2628-.3055.3931a6.4535,6.4535,0,0,0-.7925,1.27,12.5968,12.5968,0,0,0-.7007,2.834c-.0051.0248-.0432.19-.06.2665l-.037.1383c-.0805.31-.15.624-.221.9367-.1115.4944-.206.9927-.275,1.4949a19.4272,19.4272,0,0,0,.0011,4.7452C.31,45.8252.7428,48.8481,1.78,50.0179a2.0522,2.0522,0,0,0,2.4062.5243c.8776-.4942,1.7694-.0277,2.0566-1.0153.2806-.9645.4492-2.2125.7116-3.2384.2781-1.0875.2285-4.3344.6844-5.3549.1214-.2722.2306-.5483.33-.8269a11.1307,11.1307,0,0,0,.9549,2.6967,2.02,2.02,0,1,0,3.6539-1.7248Z"/>
          </g>
          <path id="right_forearm" class="cls-6" d="M31.5321,40.647s.0951-5.1182-2.1751-7.1c-1.6485-1.4392-1.849-4.7363-2.6331-6.697-.3932-.9829-.88-2.3643-1.9094-2.8693-1.1679-.5728-2.4915.1258-3.67-.7671l2.7733,8.5893,2.3778,6.7633a9.6049,9.6049,0,0,0,4.15,7.2457C34.5452,48.6481,31.5321,40.647,31.5321,40.647Z"/>
          <g>
            <g id="Body">
              <g>
                <g>
                  <path class="cls-6" d="M9.2073,30.9177c.0783.2025.1242.2391.1214.2041a1.53,1.53,0,0,1-.11-.1879Z"/>
                  <path class="cls-6" d="M22.4172,25.4907a2.7772,2.7772,0,0,0-1.4308-2.106c-.241-.0934-3.2342.0548-3.2876-.2423-.1325-.7365-.2891-1.5787-.4413-2.31a5.7464,5.7464,0,0,0-.52-1.8041,1.5463,1.5463,0,0,0-1.6125.5688,1.476,1.476,0,0,0-.3173.1367,1.2688,1.2688,0,0,0-.47.4761l-.0245.0054a1.5062,1.5062,0,0,0-.4949-.03,1.4092,1.4092,0,0,0-1.19-.159,1.528,1.528,0,0,0-1.248.19c.0742-.0524-.075-.3373-.2422-.4406q-.0445,1.0664-.136,2.1332c-.09,1.0681-.2177,2.1348-.3894,3.1927a17.9954,17.9954,0,0,0-3.4952,2.2454c-1.1663.8456,1.24,2.41,1.9863,3.4239.0354.048.0692.0973.1033.1463l-.0164-.0433c.0073.02.0185.04.028.0595.0184.0263.0364.0527.0555.0783a.2589.2589,0,0,1,.0543.11c.0434.0643.0877.1277.1229.1885.2029.3507.3955.7074.5919,1.0618a19.2393,19.2393,0,0,0,1.4919,2.383,5.5661,5.5661,0,0,0,5.25,2.3381,5.7847,5.7847,0,0,0,5.08-4.3908,16.706,16.706,0,0,0-.0479-4.4271l-.0094-.14c0-.2052.0112-.41.0225-.6149.0054-.0973.0129-.1944.02-.2918A2.0388,2.0388,0,0,0,22.4172,25.4907Z"/>
                </g>
                <path class="cls-7" d="M11.0023,21.9094c2.848,3.4673,5.6214,2.0272,6.6965,1.233-.1325-.7365-.2891-1.5787-.4413-2.31-.2632-.1293-1.2589-.6106-2.45-1.0986a1.2688,1.2688,0,0,0-.47.4761l-.0245.0054a1.5062,1.5062,0,0,0-.4949-.03,1.4092,1.4092,0,0,0-1.19-.159,1.528,1.528,0,0,0-1.248.19c.0742-.0524-.075-.3373-.2422-.4406Q11.0938,20.8426,11.0023,21.9094Z"/>
                <path class="cls-8" d="M11.7237,60.0643c.044.0268,1.5086,2.6483,1.9172,2.6989.0182.0138.0354.0277.0534.04a18.7285,18.7285,0,0,0,4.9015,2.55,10.2261,10.2261,0,0,0,5.75.0761,9.652,9.652,0,0,0,4.8424-3.0888c1.2936-1.57,2.5818-4.87,1.7774-6.8741-1.9128-4.9064-2.449-11.3059-4.4335-18.498A17.25,17.25,0,0,0,24.4983,30.94,34.6751,34.6751,0,0,1,22.44,27.0729a32.4323,32.4323,0,0,1-1.2954-3.8591,9.5928,9.5928,0,0,0-.9671.086c.279.9918.5768,1.9761.8433,2.9712a20.8811,20.8811,0,0,1,.8755,4.7468c-.1525,2.636-2.9055,3.8228-5.4424,4.354-5.742,1.2021-6.404-4.9358-8.2065-8.8434-.4958.1708-.8969.3084-.9773.3391-.3149.125-.6286.2642-.94.4139.727,1.7934,1.7783,3.4411,2.5441,5.2185a11.9123,11.9123,0,0,1,1.0848,5.8623c-.0617.706-.1539,1.437-.2854,2.1722a18.7908,18.7908,0,0,1-.5535,2.284c.0372.1622.0736.3258.1119.4913.0192.0836.0385.1669.0566.2505.0042.016.0084.0322.0111.0475.0246.1088.05.2192.0746.3293.0118.0545.0239.11.0369.1646.0366.16.0724.3213.1085.4838.0681.304.1356.6105.2049.919q.0284.1307.057.2613.0745.3363.1488.6759c.0168.0742.0325.1487.05.224.0807.3718.1619.7448.2424,1.1154.0323.1476.0645.295.0953.4417.0512.24.1027.4791.1544.7161q.0729.344.1449.6792c.0085.042.0166.0829.0259.1234.0173.0851.0354.1689.0532.2514l.0163.0768c.0118.0547.0224.1095.0339.163.0232.1082.045.2154.0676.3212l.0145.07c.0178.0826.43,2.5071.4471,2.59.0172.08.0329.1595.05.2386.0828.3983.1618.7817.2369,1.1465.0153.0722.03.1443.044.2156.0067.0351.0149.0711.0215.1062.0082.0359.0148.0709.0214.1061l.0079.0348c.0112.0571.0224.1145.0347.1714.0129.0679.0265.1342.04.2008.0184.09.035.1774.0527.2637.0583.2954.1126.57.16.82.0107.0551.0207.1077.03.1592.064.3356.1154.623.1549.85.01.0614.0194.1177.028.17.0151.1.0272.1844.036.2508l.0056.05.0047.0467c.0009.0169.0022.0313.0016.0437a.1558.1558,0,0,1-.0011.0286C12.1381,58.5126,11.4358,59.8963,11.7237,60.0643Z"/>
              </g>
              <path class="cls-9" d="M11.9581,60.0248c.0439.0267.0881.0508.1344.073a19.0466,19.0466,0,0,0,1.1665-3.2731c.8449-5.9618-1.4425-12.3128-3.585-16.29a18.7908,18.7908,0,0,1-.5535,2.284c.0372.1622.0736.3258.1119.4913.0192.0836.0385.1669.0566.2505.0042.016.0084.0322.0111.0475.0246.1088.05.2192.0746.3293.0118.0545.0239.11.0369.1646.0366.16.0724.3213.1085.4838.0681.304.1356.6105.2049.919q.0284.1307.057.2613.0745.3363.1488.6759c.0168.0742.0328.15.05.224.0807.3718.1619.7448.2424,1.1154.0323.1476.0645.295.0953.4417.0512.24.1027.4791.1544.7161.0486.2293.0964.4549.1449.6792.0085.042.0166.0829.0259.1234.0173.0851.0354.1689.0532.2514l.0163.0768c.0118.0547.0224.1095.0339.163.0232.1082.046.2151.0676.3212l.0145.07c.0176.0814.035.1628.0513.2444l.0007.0023c.0172.08.0341.16.05.2388.0828.3983.1617.7816.2369,1.1464.0153.0721.03.1443.044.2156.0066.0352.0148.0711.0215.1063s.0148.0709.0214.1061l.0079.0348c.0115.0583.0227.1154.0347.1714.0128.0679.0264.1342.04.2007.0184.09.0351.1774.0528.2638.0583.2954.1126.57.1605.82.01.0537.0207.1077.03.1591.064.3358.1154.623.1549.85.01.0613.0194.1176.028.1694.0151.1.0272.1845.0359.251l.0057.05L11.81,55.7c.0009.017.0022.0314.0016.0439a.1534.1534,0,0,1-.0012.0285C11.743,56.1693,11.67,59.8568,11.9581,60.0248Z"/>
            </g>
            <g id="Head">
              <g>
                <g>
                  <path class="cls-10" d="M4.5189,6.7845c.898-1.2361,2.3278-2.27,3.838-1.4062.7206.4119.0554,1.5138-.664,1.1024a1.3653,1.3653,0,0,0-1.7015.482.6.6,0,0,1,.5672.6343,25.0142,25.0142,0,0,0-.2233,2.84.5286.5286,0,0,1-.568.5989c.2637.5867.5743,1.1525.8349,1.676a14.148,14.148,0,0,0,2.177,3.49c.3243.3411.6618.6692.9843,1.0116.2124.2255.5716.5333.6132.8629.0987.7806-1.05,1.1048-1.2309.3984.0026.0044.0017-.0055-.0066-.0234a.6319.6319,0,0,1-.0114-.065.6007.6007,0,0,0,.0108.064.2033.2033,0,0,0-.0268-.0421c-.0723-.0866-.15-.1682-.2272-.2506-.2084-.2232-.4245-.44-.6382-.6576a9.5359,9.5359,0,0,1-1.0235-1.1746,27.3321,27.3321,0,0,1-2.8241-5.3466A4.2813,4.2813,0,0,1,4.5189,6.7845Z"/>
                  <path class="cls-10" d="M9.1458,18.4747l-.0052-.0153Z"/>
                </g>
                <polygon class="cls-10" points="9.141 18.459 9.139 18.45 9.139 18.451 9.141 18.459"/>
              </g>
              <path class="cls-6" d="M8.73,17.44c-.3293-.5337-.72-.3125-1.1248-.5581a2.8446,2.8446,0,0,1-1.37-2.5537,1.6031,1.6031,0,0,1,1.448-1.4263c.0416-.002.0828-.0021.1238-.0011A5.405,5.405,0,0,0,7.32,11.8919c-.1022-.4053-.1957-.8083-.2856-1.2094.0422-.1965.0854-.3929.1452-.5855.3246-1.0427,1.6553-1.7455,2.6508-2.0553,2.4907-.775,5.4891-.0962,7.5486-2.0144q.1033.1686.1935.3468c.8076,2.0872.7891,4.5392,1.0409,6.7116.0663.5722.1569,1.14.2418,1.7036a15.708,15.708,0,0,0,.2016,1.6321l.0015.0074a7.4555,7.4555,0,0,1-.316,3.1066,4.3327,4.3327,0,0,1-.1881,1.2461c-.3609,1.1066-1.5086,1.4636-2.5255,1.7138a3.759,3.759,0,0,1-2.9316-.0918,16.385,16.385,0,0,1-2.4924-1.9957A12.7252,12.7252,0,0,1,8.73,17.44Z"/>
              <path class="cls-10" d="M6.4081,10.4577a1.128,1.128,0,0,1,.5225-.7848,1.0546,1.0546,0,0,1,1.4023.3928c.9383,1.2915.5084,2.5442.2192,3.8608-.1739.7917.2287,1.03.499,1.6574.0922.2144.1381,1.4435-.5421.912a4.6139,4.6139,0,0,1-1.1337-1.1933C6.76,14.2476,4.5171,10.676,4.5171,10.676Z"/>
              <path class="cls-10" d="M5.4833,6.85a.67.67,0,0,1,.78-.5357.7727.7727,0,0,1,.3831-.35,2.7451,2.7451,0,0,1,.1842-1.2408.8126.8126,0,0,1,.77-.5528,1.2627,1.2627,0,0,1,1.0174-.8845,1.9909,1.9909,0,0,1,1.4494.299A1.5288,1.5288,0,0,1,10.2,3.4219a1.5448,1.5448,0,0,1,1.4642-.4811,1.3084,1.3084,0,0,1,.9787-1.27,2.0861,2.0861,0,0,1,1.5774.2783,2.9212,2.9212,0,0,1,.1042-1.38.8648.8648,0,0,1,.2838-.45.8987.8987,0,0,1,.5612-.1162,3.9136,3.9136,0,0,1,2.0941.7159A1.4733,1.4733,0,0,1,18.942.28a2.08,2.08,0,0,1,1.0482,2.18,2.1217,2.1217,0,0,1-.331.9089,1.1335,1.1335,0,0,1,1.5525.1226,1.6407,1.6407,0,0,1,.0452,1.8642,3.0433,3.0433,0,0,1-1.093,1.012.6662.6662,0,0,1,.33.1325A1.1119,1.1119,0,0,1,19.314,8.37a.6917.6917,0,0,1-.1045,1.099,1.1229,1.1229,0,0,1-1.295-.2938,1.3382,1.3382,0,0,1-.3911-.8572,1.0655,1.0655,0,0,1-1.3992.4051c-.5794-.2841-.9676-.8658-1.5421-1.16a7.34,7.34,0,0,1-4.7482,3.3211,1.742,1.742,0,0,1-1.7092-.3733.8631.8631,0,0,1-.1475.0129c-.0118,0-.0229-.0017-.0346-.0018a.7722.7722,0,0,1-1.121.3516.7389.7389,0,0,1-.9341-.0994C4.896,9.8206,5.1963,8.0423,5.4833,6.85Z"/>
            </g>
          </g>
          <path id="right_arm" class="cls-6" d="M30.4979,41.0752c.0379-.0105,6.0112-1.0852,6.7887-1.1837,1.319-.1673,6.0885-1.7222,6.3813-1.6263.4777,1.1308.7757,1.32.4726,2.3895-.5862.4088-8.3795,5.3586-10.2136,5.5466a19.7309,19.7309,0,0,1-2.2334.2066c-.2138-.1985-1.0421-.3875-1.2479-.5958C30.7506,45.6668,30.51,41.518,30.4979,41.0752Z"/>
          <g>
            <path class="cls-11" d="M29.84,54.4811l.67,1.2858s-1.2207,1.85.6454,2.2175-3.2011.9273-3.2011.9273l-.8028-3.5968Z"/>
            <path class="cls-11" d="M15.1757,74.2015S5.4981,68.2456,8.8036,62.1977s9.94-5.7545,11.3088-7.45,1.7292-8.9591,3.7536-10.0166a31.6658,31.6658,0,0,1,3.2217-1.158c.866.9408,1.5356,1.5565.254,2.3159-1.2541.7429-2.4259.7282-2.1751,3.0091s3.575,4.032,3.575,4.032L27.526,57.88a14.0856,14.0856,0,0,0,8.1178-.8461c.5223-.206.9831,1.1786.8379,1.7209-.6034,2.2545-3.5809,3.3565-6.0243,4.8333-2.8542,1.7248.66,8.2974-4.3653,11.85S15.1757,74.2015,15.1757,74.2015Z"/>
            <path class="cls-12" d="M14.6815,73.2533S5.0038,67.2974,8.31,61.25s9.94-5.7544,11.3086-7.45,1.7294-8.9591,3.7536-10.0166c3.1414-1.6412,4.996.2572,3.4757,1.1579-1.254.7429-2.4257.7282-2.1749,3.0091s3.5748,4.032,3.5748,4.032L29.285,56.8s1.2254,1.9978,5.7774.2022a.6877.6877,0,0,1,.9251.8046c-.6033,2.2547-3.5809,3.3566-6.0243,4.8333-2.8542,1.725.66,8.2976-4.3653,11.85S14.6815,73.2533,14.6815,73.2533Z"/>
            <path class="cls-3" d="M15.2417,64.217s-4.2412-2.3605.1481-5.2377c2.96-1.9406,4.5289-1.3509,6.4194-5.1235a1.8375,1.8375,0,0,1,2.894-.5339,22.5859,22.5859,0,0,1,1.8085,1.8731L27.81,57.3256a6.0287,6.0287,0,0,0,3.4277,1.2489c3.0124.0763-2.7948,2.1914-3.2332,3.6411s-.874,10.897-3.557,10.3751-3.7529-5.0145-4.5232-5.9364S16.2745,64.77,15.2417,64.217Z"/>
            <path class="cls-3" d="M14.9484,64.54s-1.7341,1.1428,1.4931,4.179c5.28,4.9678,6.7489-1.8268,6.7489-1.8268l-5.1929-5.2736Z"/>
            <path class="cls-13" d="M19.7677,68.3712c-.4214.2195-1.3632-.2685-2.3992-1.2432a9.05,9.05,0,0,1-.8191-.8661.9381.9381,0,0,1,.0819-1.2681l.206-.1972a1.0474,1.0474,0,0,1,1.4708.0215l1.7819,1.81a1.05,1.05,0,0,1,.0716,1.39,1.314,1.314,0,0,1-.3938.3537Z"/>
            <path class="cls-13" d="M25.6517,62.3334l-3.8449-3.629a.5346.5346,0,0,1-.0219-.7559h0a.5346.5346,0,0,1,.7558-.0218l3.8449,3.629a.5345.5345,0,0,1,.0218.7557h0A.5346.5346,0,0,1,25.6517,62.3334Z"/>
            <path class="cls-13" d="M23.84,64.3261l-3.8449-3.629a.5345.5345,0,0,1-.0218-.7557h0a.5346.5346,0,0,1,.7557-.0218l3.845,3.629a.5348.5348,0,0,1,.0218.7558h0A.5346.5346,0,0,1,23.84,64.3261Z"/>
            <path class="cls-13" d="M22.029,66.3191,18.1841,62.69a.5347.5347,0,0,1-.0218-.7559h0a.5345.5345,0,0,1,.7557-.0218l3.8449,3.629a.5345.5345,0,0,1,.0218.7557h0A.5345.5345,0,0,1,22.029,66.3191Z"/>
            <path class="cls-14" d="M44.9613,31.4809l-.17-.3264a1.1936,1.1936,0,0,1,.438-1.5713l6.532-3.9743a1.5646,1.5646,0,0,1,1.8161.1354h0a1.5648,1.5648,0,0,1,.419,1.8548l-.0882.192a1.5645,1.5645,0,0,1-1.3041.9067h0a3.0107,3.0107,0,0,0-2.5924,1.9444l-.5138,1.369a1.8617,1.8617,0,0,1-1.8929,1.2016l-1.0483-.0848Z"/>
            <path class="cls-14" d="M23.8,57.8933l1.998,1.9534a.5876.5876,0,0,0,.8784-.0646L47.1109,32.9062l-2.15-1.4253L23.7585,57.0987A.5875.5875,0,0,0,23.8,57.8933Z"/>
            <polygon class="cls-15" points="24.059 57.481 45.055 32.113 46.426 33.022 26.221 59.596 24.059 57.481"/>
            <rect class="cls-16" x="44.8905" y="28.8206" width="0.4752" height="2.1041" transform="translate(-8.6973 24.2381) rotate(-27.5265)"/>
            <rect class="cls-16" x="46.0568" y="27.686" width="0.4752" height="2.1042" transform="translate(-8.0406 24.6441) rotate(-27.5217)"/>
            <rect class="cls-16" x="47.333" y="26.7623" width="0.4751" height="2.104" transform="translate(-7.4696 25.135) rotate(-27.5277)"/>
            <rect class="cls-16" x="48.6091" y="25.8385" width="0.4752" height="2.104" transform="translate(-6.898 25.6155) rotate(-27.5229)"/>
            <rect class="cls-16" x="49.8852" y="24.9147" width="0.4752" height="2.1042" transform="translate(-6.3267 26.1042) rotate(-27.5265)"/>
            <rect class="cls-16" x="51.2711" y="24.2016" width="0.4752" height="2.1042" transform="translate(-5.8403 26.6629) rotate(-27.5254)"/>
          </g>
          <path id="right_hand" class="cls-6" d="M44.0492,40.6486,45.3509,39.03a2.1991,2.1991,0,0,0,.4418-1.94c-.4541-1.9673-.6577-5.2954-1.4352-5.2851-.4724.0064.3107,2.6955.4016,2.8435,0,0-.4016-2.8435-.998-2.838-.3086.0027.6173,3.3083.6173,3.3083s-.3709-3.333-1.14-2.6982c-.3262.27.6517,3.0991.6517,3.0991s-1.04-2.71-1.1859-2.325c-.142.3743.52,2.8316.7831,4.5982C43.7007,39.22,44.0492,40.6486,44.0492,40.6486Z"/>
          <g id="left_arm-2" data-name="left_arm">
            <path class="cls-6" d="M17.751,58.6146c-3.3725-2.0493-9.326-2.705-12.7132-4.7291-1.0276-.3934-2.4494-.7108-3.1662-1.5464-.8665-1.0105-.7206-4.7948-.9132-4.8752,1.5892-1.51,4.8766,2.9392,5.5223.8756,1.5915,1.2152,12.2507,7.1561,12.29,7.6169C18.8889,57.3607,18.3234,58.9624,17.751,58.6146Z"/>
            <path class="cls-6" d="M24.3181,62.3152A1.8476,1.8476,0,0,0,23.529,61.14c.2557.1066.5149.2063.7794.2944.4856.1621.6315-.529.2828-.7713Q24.4,60.53,24.21,60.3941a.4062.4062,0,0,0,.1027-.6636,11.0154,11.0154,0,0,0-2.3273-1.7816,5.2094,5.2094,0,0,0,.6462.1423.4162.4162,0,0,0,.2826-.7715c-1.1216-.643-2.3113-1.147-3.48-1.6961-.3393-.16-1.5277-.38-1.5-.0985-.0284.0063.839.55.81.5535a.4171.4171,0,0,0-.2294.0944.8344.8344,0,0,0-1.1264.64c-.54,2.8328,2.2377,4.1143,3.93,5.7158.3537.3346.8426-.118.6351-.52-.1-.1944-.1958-.3914-.2919-.5878.712.3774,1.335.9033,2.0519,1.276C23.9633,62.8275,24.3689,62.6346,24.3181,62.3152Z"/>
          </g>
        </g>
      </g>
    </g>
  </g>
</svg>
