<svg xmlns="http://www.w3.org/2000/svg" viewBox="0 0 35.09 29.97"><defs><style>.cls-1{fill:#d88205;}.cls-2{fill:#ef9d18;}.cls-3{fill:#231f20;}.cls-4{fill:#2b2b2b;}.cls-5{fill:#414042;}.cls-6{fill:#fff;}.cls-7{fill:#d1d3d4;}</style></defs><g id="Camada_2" data-name="Camada 2"><g id="Layer_1" data-name="Layer 1"><path class="cls-1" d="M31.7,21.83a.42.42,0,0,1-.42.42.58.58,0,0,1-.18,0,.42.42,0,0,1,0-.76.39.39,0,0,1,.18,0A.42.42,0,0,1,31.7,21.83Z"/><path class="cls-2" d="M31.34,21.83a.42.42,0,0,1-.24.38.42.42,0,0,1,0-.76A.42.42,0,0,1,31.34,21.83Z"/><polygon points="31.28 21.71 31.59 21.5 32.44 10.31 31.45 11.61 31.28 21.71"/><polygon class="cls-3" points="31.28 21.71 30.93 21.71 30.36 8.03 31.74 8.03 31.28 21.71"/><path class="cls-1" d="M5.28,23.28a.42.42,0,0,1-.42.42.39.39,0,0,1-.18,0,.43.43,0,0,1,0-.76.39.39,0,0,1,.18,0A.41.41,0,0,1,5.28,23.28Z"/><path class="cls-2" d="M4.92,23.28a.41.41,0,0,1-.24.38.43.43,0,0,1,0-.76A.41.41,0,0,1,4.92,23.28Z"/><polygon points="4.86 23.16 5.18 22.95 6.02 11.76 5.04 13.06 4.86 23.16"/><polygon class="cls-3" points="4.86 23.16 4.51 23.16 3.94 9.48 5.32 9.48 4.86 23.16"/><path class="cls-1" d="M26.54,29.55a.42.42,0,0,1-.42.42.58.58,0,0,1-.18,0,.42.42,0,0,1,0-.76.39.39,0,0,1,.18,0A.42.42,0,0,1,26.54,29.55Z"/><path class="cls-2" d="M26.18,29.55a.42.42,0,0,1-.24.38.42.42,0,0,1,0-.76A.42.42,0,0,1,26.18,29.55Z"/><polygon points="26.12 29.43 26.43 29.22 27.28 18.03 26.29 19.33 26.12 29.43"/><polygon class="cls-3" points="26.12 29.43 25.77 29.43 25.2 15.75 26.58 15.75 26.12 29.43"/><path class="cls-3" d="M28.78,18.82s5-1.76,6.31-3.66V8.52L26.79,9.9Z"/><polygon class="cls-3" points="33.32 3.49 33.32 8.91 27.91 8.91 27.5 4.87 33.32 3.49"/><polygon class="cls-4" points="28.78 12.19 28.78 18.82 3.94 10.7 3.94 4.87 26.81 11.61 28.78 12.19"/><path class="cls-5" d="M34.77,9.21a25.69,25.69,0,0,1-6,3l-2-.58L3.94,4.87c2.75-.93,5.54-1.74,8.34-2.48C16.93,1.15,22.34-.54,27.19.16l.93.16C29.85.63,32,1.22,33,2.54c1.18,1.6-1.12,3-2.29,3.7C28.56,7.48,36.79,7.61,34.77,9.21Z"/><polygon class="cls-3" points="3.94 9.48 0 10.39 25.16 18.36 28.78 17.14 3.94 9.48"/><polygon class="cls-3" points="28.78 17.14 25.16 18.36 25.16 20.11 28.78 18.82 28.78 17.14"/><polygon class="cls-4" points="0 10.39 25.16 18.36 25.16 20.11 0 12.07 0 10.39"/><polygon class="cls-6" points="1.27 10.8 3.94 10.16 26.24 17.14 23.99 17.99 1.27 10.8"/><polygon class="cls-7" points="1.27 10.8 1.27 11.36 23.95 18.65 23.99 17.99 1.27 10.8"/><polygon class="cls-3" points="3.58 10.96 3.35 10.89 5.09 10 5.32 10.07 3.58 10.96"/><polygon class="cls-3" points="3.96 11.07 3.73 11 5.47 10.11 5.7 10.18 3.96 11.07"/><polygon class="cls-3" points="4.89 11.35 4.66 11.28 6.4 10.39 6.63 10.46 4.89 11.35"/><polygon class="cls-3" points="5.27 11.47 5.04 11.4 6.78 10.51 7.01 10.58 5.27 11.47"/><polygon class="cls-3" points="5.65 11.58 5.41 11.51 7.15 10.62 7.39 10.69 5.65 11.58"/><polygon class="cls-3" points="6.52 11.85 6.29 11.78 8.03 10.88 8.26 10.96 6.52 11.85"/><polygon class="cls-3" points="6.9 11.96 6.67 11.89 8.4 11 8.64 11.07 6.9 11.96"/><polygon class="cls-3" points="7.83 12.24 7.6 12.17 9.34 11.28 9.57 11.35 7.83 12.24"/><polygon class="cls-3" points="8.21 12.36 7.97 12.29 9.71 11.4 9.95 11.47 8.21 12.36"/><polygon class="cls-3" points="8.59 12.47 8.35 12.4 10.09 11.51 10.32 11.58 8.59 12.47"/><polygon class="cls-3" points="9.46 12.74 9.22 12.66 10.96 11.77 11.2 11.85 9.46 12.74"/><polygon class="cls-3" points="9.84 12.85 9.6 12.78 11.34 11.89 11.57 11.96 9.84 12.85"/><polygon class="cls-3" points="10.77 13.13 10.53 13.06 12.27 12.17 12.51 12.24 10.77 13.13"/><polygon class="cls-3" points="11.14 13.25 10.91 13.18 12.65 12.29 12.88 12.36 11.14 13.25"/><polygon class="cls-3" points="11.52 13.36 11.29 13.29 13.03 12.4 13.26 12.47 11.52 13.36"/><polygon class="cls-3" points="12.39 13.63 12.16 13.55 13.9 12.66 14.13 12.73 12.39 13.63"/><polygon class="cls-3" points="12.77 13.74 12.54 13.67 14.28 12.78 14.51 12.85 12.77 13.74"/><polygon class="cls-3" points="13.7 14.02 13.47 13.95 15.21 13.06 15.44 13.13 13.7 14.02"/><polygon class="cls-3" points="14.08 14.13 13.85 14.06 15.59 13.17 15.82 13.24 14.08 14.13"/><polygon class="cls-3" points="14.46 14.25 14.23 14.18 15.97 13.29 16.2 13.36 14.46 14.25"/><polygon class="cls-3" points="15.33 14.51 15.1 14.44 16.84 13.55 17.07 13.62 15.33 14.51"/><polygon class="cls-3" points="15.71 14.63 15.48 14.56 17.22 13.67 17.45 13.74 15.71 14.63"/><polygon class="cls-3" points="16.64 14.91 16.41 14.84 18.15 13.95 18.38 14.02 16.64 14.91"/><polygon class="cls-3" points="17.02 15.02 16.79 14.95 18.53 14.06 18.76 14.13 17.02 15.02"/><polygon class="cls-3" points="17.4 15.14 17.16 15.07 18.91 14.18 19.14 14.25 17.4 15.14"/><polygon class="cls-3" points="18.27 15.4 18.04 15.33 19.78 14.44 20.01 14.51 18.27 15.4"/><polygon class="cls-3" points="18.65 15.52 18.42 15.45 20.16 14.56 20.39 14.63 18.65 15.52"/><polygon class="cls-3" points="19.58 15.8 19.35 15.73 21.09 14.84 21.32 14.91 19.58 15.8"/><polygon class="cls-3" points="19.96 15.91 19.73 15.84 21.46 14.95 21.7 15.02 19.96 15.91"/><polygon class="cls-3" points="20.34 16.03 20.1 15.96 21.84 15.07 22.07 15.14 20.34 16.03"/><polygon class="cls-3" points="21.21 16.29 20.98 16.22 22.71 15.33 22.95 15.4 21.21 16.29"/><polygon class="cls-3" points="21.59 16.41 21.35 16.34 23.09 15.45 23.33 15.52 21.59 16.41"/><polygon class="cls-3" points="22.52 16.69 22.29 16.62 24.02 15.73 24.26 15.8 22.52 16.69"/><polygon class="cls-3" points="22.89 16.8 22.66 16.73 24.4 15.84 24.64 15.91 22.89 16.8"/><polygon class="cls-3" points="23.27 16.92 23.04 16.85 24.78 15.96 25.01 16.02 23.27 16.92"/><polygon class="cls-3" points="24.15 17.18 23.91 17.11 25.65 16.22 25.89 16.29 24.15 17.18"/><polygon class="cls-3" points="24.52 17.3 24.29 17.22 26.03 16.33 26.26 16.4 24.52 17.3"/></g></g></svg>