<svg xmlns="http://www.w3.org/2000/svg" viewBox="0 0 135.13373 100.68111">
  <defs>
    <style>
      .cls-1 {
        fill: #c11010;
      }

      .cls-2 {
        fill: #fff;
      }
    </style>
  </defs>
  <g id="Camada_2" data-name="Camada 2">
    <g id="Camada_1-2" data-name="Camada 1">
      <g>
        <path class="cls-1" d="M79.611,17.16046a3.92791,3.92791,0,0,1-1.93959-4.40274,3.82833,3.82833,0,0,1,7.44526.19991A5.01055,5.01055,0,0,1,84.043,17.30188a34.44016,34.44016,0,0,1-4.51873,4.419A62.55086,62.55086,0,0,1,69.17409,29.0503a14.59355,14.59355,0,0,0-4.55342,3.562,9.8996,9.8996,0,0,0-.89483,1.3052.7378.7378,0,0,1-.91818.4523,12.02438,12.02438,0,0,0-4.75905.3762,43.931,43.931,0,0,0-14.51054,6.44412,22.62942,22.62942,0,0,0-3.06218,2.48876c-.22157.21433-.39392.31611.0297.579a3.59457,3.59457,0,0,1,1.67077,3.4901,3.53106,3.53106,0,0,1-2.10506,3.1265,3.59243,3.59243,0,0,1-4.21636-.54491,4.16037,4.16037,0,0,1-1.15921-4.50546,8.34839,8.34839,0,0,1,2.539-3.61461,65.482,65.482,0,0,1,13.16787-9.95161,15.48226,15.48226,0,0,0,4.45736-3.33665,13.561,13.561,0,0,0,1.32555-1.90071c.08526-.14815.135-.28085.37326-.23475A12.50641,12.50641,0,0,0,62.04,26.37993,44.14158,44.14158,0,0,0,76.4518,19.84606,19.04472,19.04472,0,0,0,79.611,17.16046Z"/>
        <g>
          <path class="cls-2" d="M33.50147,1.87136l-.895,2.44091a3.52652,3.52652,0,0,1-.08124.4068v32.0573a16.10038,16.10038,0,0,1-29.2096,9.3569l-.24407-.40681-.40688-.40688L.54915,43.855a1.45543,1.45543,0,0,1,0-2.27817l6.1023-4.31226a1.39919,1.39919,0,0,1,2.11551.8136l.73219,2.441a1.15607,1.15607,0,0,0,.16283.48813l.32547.4068A7.83511,7.83511,0,0,0,16.41506,44.75a7.98664,7.98664,0,0,0,7.97375-7.97366V4.71907a.88423.88423,0,0,0-.08141-.4068l-.895-2.44091A1.42852,1.42852,0,0,1,24.71428,0h7.48545A1.3927,1.3927,0,0,1,33.50147,1.87136Z"/>
          <path class="cls-2" d="M132.6829,51.01507a1.42852,1.42852,0,0,1-1.3019,1.87136h-7.48545a1.3927,1.3927,0,0,1-1.30174-1.87136l.895-2.4409a.8858.8858,0,0,0,.08125-.4068V21.23593a.59683.59683,0,0,0-1.13909-.24414L113.80646,39.38a1.20748,1.20748,0,0,0,0,1.05776l.65095,1.87136a1.39272,1.39272,0,0,1-1.3019,1.87136h-7.404a1.39279,1.39279,0,0,1-1.3019-1.87136l.651-1.87136a1.586,1.586,0,0,0-.08141-1.05776L96.476,20.99179a.595.595,0,0,0-1.13908.24414V48.16737a.88428.88428,0,0,0,.08141.4068l.895,2.4409a1.4286,1.4286,0,0,1-1.30191,1.87136H87.526a1.39279,1.39279,0,0,1-1.3019-1.87136l.895-2.4409a3.51914,3.51914,0,0,1,.08141-.4068V4.71907a3.52,3.52,0,0,1-.08141-.4068l-.895-2.44091A1.39279,1.39279,0,0,1,87.526,0h7.48545a1.4286,1.4286,0,0,1,1.30191,1.87136l-.32548.73228,12.9368,27.5823a.56452.56452,0,0,0,1.05767,0l12.85555-27.5823-.24407-.73228A1.3927,1.3927,0,0,1,123.89555,0H131.381a1.42852,1.42852,0,0,1,1.3019,1.87136l-.895,2.44091a.88423.88423,0,0,0-.08141.4068v43.4483a.88428.88428,0,0,0,.08141.4068Z"/>
          <g>
            <path class="cls-2" d="M54.0043,2.76627a4.56038,4.56038,0,0,1,.24406,2.92915c-1.7579,6.5565-4.0983,15.36-6.47069,24.22391.4599-.22822.88435-.4394.99721-.504a12.83926,12.83926,0,0,0,3.56478-2.58672,10.37313,10.37313,0,0,0,1.00686-1.44231,3.51993,3.51993,0,0,1,3.12373-1.88535,3.77728,3.77728,0,0,1,.709.06838c.1378.02664.2789.044.42121.05962.95957-3.60656,1.61115-6.13575,1.61115-6.13575a.70948.70948,0,0,1,1.30175,0l1.45715,5.50862a41.17178,41.17178,0,0,0,7.39882-2.7919L65.47652,5.69542a4.56145,4.56145,0,0,1,.24407-2.92915l.40691-.8949C66.53436.97633,65.72059,0,64.50026,0H55.22478c-1.22048,0-2.03411.97632-1.6274,1.87136Z"/>
            <path class="cls-2" d="M77.03017,48.57416a1.37856,1.37856,0,0,1-.16264-.40681L72.268,31.01781c-.46989.2853-.94667.57145-1.44066.86025a12.00946,12.00946,0,0,0-3.59517,2.71148l-.08877.11676A6.97359,6.97359,0,0,0,66.62,35.452a4.37041,4.37041,0,0,1-.99226,1.25892l1.3122,4.91232a1.56143,1.56143,0,0,1,.08258.19764c.48813,1.95278,1.05768,4.14958,1.70861,6.42775v.32549L68.487,51.01507a1.93628,1.93628,0,0,0,1.79,1.87136h7.48544c.97627,0,1.38318-.97636.81363-1.87136Z"/>
            <path class="cls-2" d="M51.07515,48.16735c0-.16175.96477-3.78056,2.17465-8.45771A42.0388,42.0388,0,0,0,45.37245,43.904c-.13146.08877-.97242.50868-1.57951.82237-.318,1.1724-.63074,2.32336-.93558,3.441a.62124.62124,0,0,1-.16265.40681l-1.546,2.44091c-.56956.895-.16264,1.87136.81377,1.87136H49.448a1.93639,1.93639,0,0,0,1.79-1.87136l-.24422-2.44091A.60949.60949,0,0,1,51.07515,48.16735Z"/>
          </g>
        </g>
        <g>
          <path class="cls-2" d="M42.1069,99.13064a1.18349,1.18349,0,0,1-1.07853,1.55047H34.82664a1.15389,1.15389,0,0,1-1.0786-1.55047l.74153-2.02226a.73326.73326,0,0,0,.0674-.33707V74.45844a.49447.49447,0,0,0-.94373-.20219L26.4677,89.491a1,1,0,0,0,0,.87633l.53926,1.55047a1.15381,1.15381,0,0,1-1.07852,1.55039H19.79411a1.15389,1.15389,0,0,1-1.07861-1.55039l.53926-1.55047a1.31386,1.31386,0,0,0-.0674-.87633L12.1093,74.25625a.493.493,0,0,0-.94373.20219V96.77131a.73326.73326,0,0,0,.0674.33707l.74154,2.02226a1.18358,1.18358,0,0,1-1.07861,1.55047H4.69417a1.15393,1.15393,0,0,1-1.07861-1.55047l.74154-2.02226a2.9173,2.9173,0,0,1,.0674-.33707V60.77418a2.92451,2.92451,0,0,1-.0674-.33707l-.74154-2.02234A1.15393,1.15393,0,0,1,4.69417,56.8643H10.8959a1.18358,1.18358,0,0,1,1.07861,1.55047l-.26968.60666L22.4231,81.87357a.46776.46776,0,0,0,.87634,0L33.95023,59.02143l-.20219-.60666a1.15389,1.15389,0,0,1,1.0786-1.55047h6.20173a1.18349,1.18349,0,0,1,1.07853,1.55047l-.74146,2.02234a.73217.73217,0,0,0-.06748.33707V96.77131a.7325.7325,0,0,0,.06748.33707Z"/>
          <path class="cls-2" d="M78.77792,100.68111H72.57611a1.60427,1.60427,0,0,1-1.483-1.55047l.2022-2.02226v-.26967c-.53927-1.88746-1.01113-3.70761-1.4156-5.3254a1.18145,1.18145,0,0,0-.87633-.80893l-9.1678-1.82006a1.19541,1.19541,0,0,0-1.3482.80893c-1.01121,3.9098-1.82006,6.94327-1.82006,7.07806a.50468.50468,0,0,0-.06748.33707l.20227,2.02226a1.60426,1.60426,0,0,1-1.48307,1.55047H49.11731c-.80894,0-1.146-.80893-.67414-1.55047l1.2808-2.02226a.51464.51464,0,0,0,.13488-.33707c3.03346-11.12274,6.94326-25.8856,9.43747-35.18828a3.77831,3.77831,0,0,0-.20228-2.42672l-.33707-.74154c-.337-.74154.33707-1.55047,1.3482-1.55047H67.79c1.01122,0,1.68527.80893,1.3482,1.55047l-.337.74154a3.77831,3.77831,0,0,0-.20228,2.42672l9.43747,35.18828a1.13978,1.13978,0,0,0,.1348.33707l1.2808,2.02226C79.92384,99.87218,79.58685,100.68111,78.77792,100.68111ZM65.90251,83.22185a1.15789,1.15789,0,0,0,1.3482-1.41568l-2.76379-10.4486a.58787.58787,0,0,0-1.07861,0s-1.14592,4.44907-2.5616,9.63967a1.21623,1.21623,0,0,0,.87633,1.41568Z"/>
          <path class="cls-2" d="M103.72063,58.0103v5.39288a1.09178,1.09178,0,0,1-1.483,1.01113l-2.08973-.74154a.73312.73312,0,0,0-.33707-.0674H96.50777a1.18127,1.18127,0,0,0-1.146,1.146V96.77131a2.9173,2.9173,0,0,1,.0674.33707l.74154,2.02226a1.15393,1.15393,0,0,1-1.07861,1.55047H88.95776a1.15385,1.15385,0,0,1-1.07852-1.55047l.67405-2.02226a.73326.73326,0,0,0,.0674-.33707V64.75138a1.13616,1.13616,0,0,0-1.14592-1.146H84.239a.608.608,0,0,0-.33707.0674l-2.08974.74154a1.09177,1.09177,0,0,1-1.483-1.01113V58.0103a1.18132,1.18132,0,0,1,1.146-1.146H102.5747A1.18131,1.18131,0,0,1,103.72063,58.0103Z"/>
          <path class="cls-2" d="M117.4048,64.75138V71.0205a1.03679,1.03679,0,0,0,1.01113,1.01121h8.29146a.85408.85408,0,0,0,.40447-.06748l2.02234-.74145a1.10184,1.10184,0,0,1,1.483,1.07852v6.20182a1.10187,1.10187,0,0,1-1.483,1.07852l-2.02234-.74154a.8551.8551,0,0,0-.40447-.06739h-8.29146a1.03673,1.03673,0,0,0-1.01113,1.01121v13.0102A1.13614,1.13614,0,0,0,118.55072,93.94h12.60582a.85478.85478,0,0,0,.40438-.0674l2.08974-.74154a1.09186,1.09186,0,0,1,1.48307,1.01121v5.3928a1.18126,1.18126,0,0,1-1.146,1.146h-23.324v-.0674a1.11807,1.11807,0,0,1-.80894-1.48307l.74154-2.02226a2.9173,2.9173,0,0,1,.0674-.33707V60.77418a2.92451,2.92451,0,0,1-.0674-.33707l-.74154-2.02234a1.118,1.118,0,0,1,.80894-1.483V56.8643h23.324a1.18132,1.18132,0,0,1,1.146,1.146v5.39288a1.09182,1.09182,0,0,1-1.48307,1.01113l-2.08974-.74154a.85478.85478,0,0,0-.40438-.0674H118.55072A1.13616,1.13616,0,0,0,117.4048,64.75138Z"/>
        </g>
      </g>
    </g>
  </g>
</svg>
