<svg xmlns="http://www.w3.org/2000/svg" viewBox="0 0 292.44 80.93"><defs><style>.cls-1{fill:#6960a8;}.cls-2{fill:#6294cf;}</style></defs><g id="Camada_2" data-name="Camada 2"><g id="Camada_1-2" data-name="Camada 1"><g id="MATE"><path class="cls-1" d="M83.51,37.39Q78.32,33,69.1,33a47,47,0,0,0-7.27.62,46.35,46.35,0,0,0-7.8,2,17,17,0,0,0,.62,4.88,24.71,24.71,0,0,0,1.86,4.34,31.46,31.46,0,0,1,10.2-1.86,27.73,27.73,0,0,1,4,.27,7.78,7.78,0,0,1,3,1,5.22,5.22,0,0,1,2,2.08,7.26,7.26,0,0,1,.71,3.46v1.06q-3.1-.27-5.67-.27a34.11,34.11,0,0,0-7.09.76,20.74,20.74,0,0,0-6.43,2.48,14,14,0,0,0-4.7,4.61,13.15,13.15,0,0,0-1.82,7.14,16,16,0,0,0,1.46,7.18,12.6,12.6,0,0,0,4.17,4.79,17.75,17.75,0,0,0,6.47,2.66,40.28,40.28,0,0,0,8.29.8,51.34,51.34,0,0,0,10-.89,73.62,73.62,0,0,0,7.54-1.86V51.58Q88.7,41.83,83.51,37.39ZM76.46,70.55l-2.3.4a15.91,15.91,0,0,1-2.66.22c-.77,0-1.67,0-2.71-.13a9.47,9.47,0,0,1-2.92-.71,5.75,5.75,0,0,1-2.35-1.82,5.61,5.61,0,0,1-1-3.54,5.43,5.43,0,0,1,2.53-5,13,13,0,0,1,6.87-1.55,20.72,20.72,0,0,1,2.22.13c.83.09,1.59.19,2.3.31Z"/><path class="cls-1" d="M57.28,9.26c-.09-1-.14-1.93-.14-2.88A26.33,26.33,0,0,1,57.68,1H41.62V12H57.68A22.54,22.54,0,0,1,57.28,9.26Z"/><path class="cls-1" d="M28.67,43.4h0V60.83a9,9,0,0,1-8,9c-.46,0-.91,0-1.35,0a9,9,0,0,1-3.22-17.29v-11A19.65,19.65,0,0,0,0,60.83C0,69.45,4.56,76.76,12.29,79.4a30.1,30.1,0,0,0,5.35,1.26,32.64,32.64,0,0,0,3.76.27,31.27,31.27,0,0,0,8-1,17,17,0,0,0,6.38-3.15,15,15,0,0,0,4.26-5.58,20,20,0,0,0,1.55-8.29V12H28.67Z"/><circle class="cls-1" cx="108.36" cy="6.47" r="6.47"/><path class="cls-1" d="M112.82,20.3l.21-4.48c-1.51-.15-3-.24-4.56-.24a46.73,46.73,0,0,0-6.83.53L99.16,79.86a33.13,33.13,0,0,0,5.85.53,29.32,29.32,0,0,0,5.5-.53l.72-25.39h0L112,38.1a27.77,27.77,0,0,0,15.17,6.37l5.31-5.32L127.29,34A17.43,17.43,0,0,1,112.82,20.3Z"/></g><g id="JAM"><path class="cls-2" d="M202.23,37.39Q197,33,187.82,33a46.85,46.85,0,0,0-7.27.62,46.35,46.35,0,0,0-7.8,2,17,17,0,0,0,.62,4.88,23.29,23.29,0,0,0,1.86,4.34,31.46,31.46,0,0,1,10.2-1.86,27.59,27.59,0,0,1,4,.27,7.89,7.89,0,0,1,3.06,1,5.22,5.22,0,0,1,1.95,2.08,7.38,7.38,0,0,1,.71,3.46v1.06q-3.1-.27-5.67-.27a34.28,34.28,0,0,0-7.1.76A20.84,20.84,0,0,0,176,53.75a14,14,0,0,0-4.69,4.61,13.06,13.06,0,0,0-1.82,7.14,16,16,0,0,0,1.46,7.18,12.51,12.51,0,0,0,4.17,4.79,17.75,17.75,0,0,0,6.47,2.66,40.21,40.21,0,0,0,8.29.8,51.48,51.48,0,0,0,10-.89,74.29,74.29,0,0,0,7.54-1.86V51.58Q207.42,41.83,202.23,37.39Zm-7,33.16-2.3.4a16,16,0,0,1-2.67.22c-.76,0-1.67,0-2.7-.13a9.47,9.47,0,0,1-2.92-.71,5.68,5.68,0,0,1-2.35-1.82,5.55,5.55,0,0,1-1-3.54,5.41,5.41,0,0,1,2.53-5,13,13,0,0,1,6.87-1.55,20.72,20.72,0,0,1,2.22.13c.82.09,1.59.19,2.3.31Z"/><path class="cls-2" d="M243.85,69.75c-.65.12-1.4.26-2.26.4a15.08,15.08,0,0,1-2.61.23,10.57,10.57,0,0,1-2.93-.36A4.23,4.23,0,0,1,234,68.69,6.68,6.68,0,0,1,232.68,66a18.24,18.24,0,0,1-.44-4.43v-18H243c.17-1,.29-1.8.35-2.57s.09-1.57.09-2.4,0-1.5-.09-2.21A23.59,23.59,0,0,0,243,34H232.24V20.64h-2L213.62,41.83l.44,1.77h5.77V64.35q0,8.5,4.25,12.28t12.33,3.76a36.12,36.12,0,0,0,8.42-1c.06-.41.1-.84.13-1.29s0-1,0-1.64a22.26,22.26,0,0,0-.27-3.23A17.37,17.37,0,0,0,243.85,69.75Z"/><path class="cls-2" d="M291.11,46.21a19.68,19.68,0,0,0-3.94-7,19,19,0,0,0-6.34-4.61A20.52,20.52,0,0,0,272.32,33a22.68,22.68,0,0,0-9.62,1.91,20,20,0,0,0-6.92,5.18,22.12,22.12,0,0,0-4.21,7.72,30.75,30.75,0,0,0-1.42,9.48,31.54,31.54,0,0,0,1.37,9.49,19.8,19.8,0,0,0,4.26,7.49,19.34,19.34,0,0,0,7.45,4.92,30.27,30.27,0,0,0,10.95,1.78,43.25,43.25,0,0,0,15.6-2.66A21.46,21.46,0,0,0,289,73a20.33,20.33,0,0,0-1.68-4.26,34.46,34.46,0,0,1-6,1.64,33.58,33.58,0,0,1-6.16.58,14.94,14.94,0,0,1-8.86-2.4q-3.37-2.39-3.73-7.71H292c.12-.65.22-1.52.31-2.62s.13-2.2.13-3.32A27.4,27.4,0,0,0,291.11,46.21ZM262.65,52a11.66,11.66,0,0,1,2.75-7c1.54-1.66,3.78-2.48,6.74-2.48a7.46,7.46,0,0,1,6.07,2.61A11.15,11.15,0,0,1,280.56,52Z"/><circle class="cls-2" cx="151.25" cy="6.47" r="6.47"/><path class="cls-2" d="M157.72,16.75c0-.21,0-.42,0-.64h-.11a38.79,38.79,0,0,0-6.47-.53,34.76,34.76,0,0,0-4.07.23l0,3.53a17.45,17.45,0,0,1-13.34,14.39l5.41,5.42L134,44.29a27.74,27.74,0,0,0,13.28-5.84l.27,22.79.69,18.62a32.64,32.64,0,0,0,5.94.53,40.24,40.24,0,0,0,6.38-.53l-2.92-61.73C157.71,17.67,157.72,17.21,157.72,16.75Z"/></g></g></g></svg>