<svg xmlns="http://www.w3.org/2000/svg" viewBox="0 0 380.94 292.09">
  <defs>
    <style>
      .cls-1 {
        fill: #e31ee8;
      }

      .cls-2{
        fill: #231f1a;
      }

      .black_key {
        fill: #231f1a;
      }

      .black_key:active {
        fill: black;
      }

      .white_key {
        fill: #f4f2f5;
      }

      .white_key:active {
        fill: gray;
      }

      .cls-4 {
        fill: #4f4748;
      }

      .cls-5 {
        fill: #14110f;
      }

      .cls-6 {
        fill: #1a1714;
      }

      .cls-7 {
        fill: #7b7575;
      }
    </style>
  </defs>
  <g id="Layer_1" data-name="Layer 1">
    <g>
      <rect class="cls-1" x="8.13" y="7.72" width="364.67" height="276.65"/>
      <rect class="cls-2" x="21.68" y="7.72" width="337.57" height="276.65"/>
      <g>
        <rect id="white_key" class="white_key" x="121.58" y="163.52" width="22.13" height="115.16"/>
        <rect id="white_key-2" data-name="white_key" class="white_key" x="167.93" y="163.52" width="21.97" height="115.16"/>
        <rect id="white_key-3" data-name="white_key" class="white_key" x="98.47" y="163.52" width="21.98" height="115.16"/>
        <rect id="white_key-4" data-name="white_key" class="white_key" x="144.84" y="163.52" width="21.96" height="115.16"/>
        <rect id="white_key-5" data-name="white_key" class="white_key" x="52.13" y="163.52" width="21.96" height="115.16"/>
        <rect id="white_key-6" data-name="white_key" class="white_key" x="75.22" y="163.52" width="22.13" height="115.16"/>
        <rect id="white_key-7" data-name="white_key" class="white_key" x="28.46" y="163.52" width="22.54" height="115.16"/>
        <rect id="white_key-8" data-name="white_key" class="white_key" x="306.85" y="163.52" width="21.97" height="115.16"/>
        <rect id="white_key-9" data-name="white_key" class="white_key" x="329.94" y="163.52" width="22.54" height="115.16"/>
        <rect id="white_key-10" data-name="white_key" class="white_key" x="283.59" y="163.52" width="22.13" height="115.16"/>
        <rect id="white_key-11" data-name="white_key" class="white_key" x="260.49" y="163.52" width="21.98" height="115.16"/>
        <rect id="white_key-12" data-name="white_key" class="white_key" x="191.03" y="163.52" width="21.97" height="115.16"/>
        <rect id="white_key-13" data-name="white_key" class="white_key" x="214.14" y="163.52" width="21.96" height="115.16"/>
        <rect id="white_key-14" data-name="white_key" class="white_key" x="237.23" y="163.52" width="22.13" height="115.16"/>
      </g>
      <rect id="black_key" class="black_key" x="45.31" y="163.52" width="12.5" height="66.61"/>
      <rect id="black_key-2" data-name="black_key" class="black_key" x="68.4" y="163.52" width="12.5" height="66.61"/>
      <rect id="black_key-3" data-name="black_key" class="black_key" x="91.66" y="163.52" width="12.5" height="66.61"/>
      <rect id="black_key-4" data-name="black_key" class="black_key" x="138.02" y="163.52" width="12.5" height="66.61"/>
      <rect id="black_key-5" data-name="black_key" class="black_key" x="161.11" y="163.52" width="12.5" height="66.61"/>
      <rect id="black_key-6" data-name="black_key" class="black_key" x="207.32" y="163.52" width="12.5" height="66.61"/>
      <rect id="black_key-7" data-name="black_key" class="black_key" x="230.41" y="163.52" width="12.5" height="66.61"/>
      <rect id="black_key-8" data-name="black_key" class="black_key" x="253.67" y="163.52" width="12.5" height="66.61"/>
      <rect id="black_key-9" data-name="black_key" class="black_key" x="300.03" y="163.52" width="12.5" height="66.61"/>
      <rect id="black_key-10" data-name="black_key" class="black_key" x="323.13" y="163.52" width="12.5" height="66.61"/>
      <rect class="cls-4" x="53.29" y="32.93" width="59.86" height="103.87"/>
      <g id="fader_slide">
        <rect class="cls-2" x="72.79" y="93.71" width="20.87" height="31.33"/>
        <rect class="cls-2" x="72.79" y="44.69" width="20.87" height="31.33"/>
        <polygon class="cls-5" points="83.79 121.56 82.66 121.56 82.66 49.3 83.79 49.3 83.79 121.56 83.79 121.56"/>
        <g id="fader">
          <polygon class="cls-5" points="72.79 76.02 69.4 79.13 90.27 79.13 90.27 90.6 69.4 90.6 72.79 93.71 93.66 93.71 93.66 76.02 72.79 76.02"/>
          <rect class="cls-6" x="69.4" y="79.13" width="20.87" height="11.48"/>
        </g>
      </g>
      <rect class="cls-4" x="119.93" y="32.93" width="206.55" height="48.81"/>
      <rect class="cls-4" x="119.93" y="87.99" width="206.55" height="48.81"/>
      <g id="knob">
        <g>
          <path class="cls-6" d="M168,63.58a14,14,0,1,1-6.28-18.77A14,14,0,0,1,168,63.58Z"/>
          <path class="cls-2" d="M166.06,62.62a11.84,11.84,0,1,1-5.31-15.88A11.86,11.86,0,0,1,166.06,62.62Z"/>
          <polygon class="cls-7" points="158.64 52.17 157.68 51.69 161.22 44.57 162.19 45.05 158.64 52.17 158.64 52.17"/>
        </g>
        <path class="cls-7" d="M175.14,58.33H174c0-.37,0-.74,0-1.1l1.12-.06c0,.38,0,.77,0,1.16Zm-38.22-.21h-1.13c0-.39,0-.78.05-1.17L137,57c0,.36,0,.73,0,1.1ZM173.49,54c-.08-.36-.17-.71-.28-1.06l1.08-.33c.11.37.21.74.3,1.12l-1.1.27Zm-36-.21-1.09-.27c.09-.38.19-.75.31-1.12l1.08.34q-.17.52-.3,1.05ZM172,49.89c-.17-.33-.34-.65-.53-1l1-.57c.2.33.39.68.56,1l-1,.52ZM139,49.7l-1-.53.57-1,1,.59c-.19.31-.37.63-.54,1Zm30.5-3.44c-.24-.28-.48-.55-.74-.81l.81-.79c.27.28.54.57.79.86l-.86.74Zm-28-.16-.85-.74c.26-.29.52-.58.79-.85l.81.79c-.26.26-.51.53-.75.8Zm24.8-2.81c-.29-.21-.59-.41-.9-.61l.6-1c.33.21.65.42,1,.65l-.66.91Zm-21.55-.12-.65-.92c.31-.22.64-.43,1-.64l.59,1c-.31.19-.61.4-.91.6Zm17.74-2c-.34-.14-.68-.27-1-.39l.37-1.07,1.09.41-.43,1.05Zm-13.9-.08L148.2,40c.35-.14.72-.28,1.09-.4l.35,1.07c-.34.12-.69.24-1,.38ZM158.29,40c-.35-.06-.71-.1-1.08-.14l.1-1.12c.39,0,.78.08,1.16.14L158.29,40Zm-5.45,0-.16-1.12c.38-.05.77-.1,1.16-.13l.09,1.13c-.37,0-.73.07-1.09.12Z"/>
      </g>
      <g id="knob-2" data-name="knob">
        <g>
          <path class="cls-6" d="M233.07,47.41a14,14,0,1,1-19.79.06A14,14,0,0,1,233.07,47.41Z"/>
          <path class="cls-2" d="M231.56,48.94A11.85,11.85,0,1,1,214.8,49,11.84,11.84,0,0,1,231.56,48.94Z"/>
          <polygon class="cls-7" points="219.29 52.69 218.54 53.46 212.9 47.85 213.66 47.09 219.29 52.69 219.29 52.69"/>
        </g>
        <path class="cls-7" d="M242.88,58.33h-1.13c0-.37,0-.74,0-1.1l1.12-.06c0,.38,0,.77,0,1.16Zm-38.22-.21h-1.13c0-.39,0-.78.05-1.17l1.12.08c0,.36,0,.73,0,1.1ZM241.24,54c-.09-.36-.18-.71-.29-1.06L242,52.6c.11.37.22.74.3,1.12l-1.09.27Zm-36-.21-1.1-.27c.1-.38.21-.75.32-1.12l1.08.34q-.17.52-.3,1.05Zm34.5-3.89c-.17-.33-.34-.65-.53-1l1-.57c.2.33.38.68.56,1l-1,.52Zm-32.94-.19-1-.53c.18-.34.37-.68.57-1l1,.59c-.19.31-.37.63-.54,1Zm30.5-3.44c-.24-.28-.48-.55-.74-.81l.82-.79c.27.28.52.57.78.86l-.86.74Zm-28-.16-.85-.74c.26-.29.52-.58.79-.85l.81.79c-.26.26-.51.53-.75.8Zm24.8-2.81c-.29-.21-.59-.41-.9-.61l.6-1c.33.21.65.42,1,.65l-.66.91Zm-21.55-.12-.65-.92c.31-.22.64-.43,1-.64l.59,1c-.31.19-.61.4-.91.6Zm17.74-2c-.34-.14-.68-.27-1-.39l.37-1.07,1.09.41-.43,1.05Zm-13.9-.08L215.93,40c.36-.14.73-.28,1.1-.4l.35,1.07c-.34.12-.69.24-1,.38ZM226,40c-.36-.06-.73-.1-1.09-.14l.1-1.12c.39,0,.77.08,1.16.14L226,40Zm-5.46,0-.16-1.12c.38-.05.77-.1,1.15-.13l.1,1.13c-.37,0-.73.07-1.09.12Z"/>
      </g>
      <g id="knob-3" data-name="knob">
        <g>
          <path class="cls-6" d="M306.7,53.65a14,14,0,1,1-17.18-9.81A14,14,0,0,1,306.7,53.65Z"/>
          <path class="cls-2" d="M304.63,54.22a11.85,11.85,0,1,1-14.55-8.31A11.85,11.85,0,0,1,304.63,54.22Z"/>
          <polygon class="cls-7" points="292.13 51.36 291.1 51.65 289 43.98 290.04 43.69 292.13 51.36 292.13 51.36"/>
        </g>
        <path class="cls-7" d="M312.87,58.33h-1.13c0-.37,0-.74,0-1.1l1.13-.06c0,.38,0,.77,0,1.16Zm-38.21-.21h-1.13c0-.39,0-.78.05-1.17l1.12.08c0,.36,0,.73,0,1.1ZM311.23,54c-.08-.36-.18-.71-.28-1.06L312,52.6c.11.37.21.74.3,1.12l-1.1.27Zm-36-.21-1.1-.27c.1-.38.2-.75.32-1.12l1.08.34c-.11.35-.22.7-.3,1.05Zm34.5-3.89c-.17-.33-.35-.65-.53-1l1-.57c.2.33.39.68.56,1l-1,.52Zm-32.94-.19-1-.53c.18-.34.37-.68.57-1l1,.59c-.19.31-.37.63-.54,1Zm30.5-3.44c-.24-.28-.48-.55-.74-.81l.81-.79c.27.28.53.57.79.86l-.86.74Zm-28-.16-.85-.74c.25-.29.52-.58.79-.85l.81.79c-.26.26-.51.53-.75.8Zm24.8-2.81-.9-.61.6-1c.33.21.65.42,1,.65l-.66.91Zm-21.55-.12-.66-.92,1-.64.6,1c-.31.19-.62.4-.91.6Zm17.73-2q-.5-.21-1-.39l.37-1.07,1.08.41-.43,1.05Zm-13.89-.08L285.93,40c.36-.14.73-.28,1.1-.4l.35,1.07c-.35.12-.69.24-1,.38ZM296,40c-.35-.06-.72-.1-1.08-.14l.1-1.12c.39,0,.77.08,1.15.14L296,40Zm-5.45,0-.16-1.12c.38-.05.76-.1,1.15-.13l.09,1.13-1.08.12Z"/>
      </g>
      <g id="knob-4" data-name="knob">
        <g>
          <path class="cls-6" d="M169.25,111.4A14,14,0,1,1,153.08,100,14,14,0,0,1,169.25,111.4Z"/>
          <path class="cls-2" d="M167.14,111.77a11.85,11.85,0,1,1-13.7-9.66A11.86,11.86,0,0,1,167.14,111.77Z"/>
          <polygon class="cls-7" points="154.96 107.74 153.9 107.92 152.55 100.09 153.6 99.91 154.96 107.74 154.96 107.74"/>
        </g>
        <path class="cls-7" d="M175.14,114.78H174c0-.37,0-.74,0-1.1l1.12-.06c0,.38,0,.77,0,1.16Zm-38.22-.21h-1.13c0-.39,0-.78.05-1.17l1.12.08c0,.37,0,.73,0,1.1Zm36.57-4.13c-.08-.36-.17-.71-.28-1.06l1.08-.33c.11.37.21.74.3,1.12l-1.1.27Zm-36-.21-1.09-.27c.09-.38.19-.75.31-1.12l1.08.34c-.11.34-.21.7-.3,1Zm34.5-3.89c-.17-.33-.34-.65-.53-1l1-.57c.2.34.39.68.56,1l-1,.52ZM139,106.15l-1-.53.57-1,1,.59c-.19.31-.37.63-.54,1Zm30.5-3.44c-.24-.28-.48-.55-.74-.82l.81-.78c.27.28.54.57.79.86l-.86.74Zm-28-.16-.85-.75c.26-.29.52-.57.79-.85l.81.8c-.26.26-.51.53-.75.8Zm24.8-2.81c-.29-.21-.59-.41-.9-.61l.6-.95c.33.21.65.42,1,.65l-.66.91Zm-21.55-.11-.65-.93c.31-.22.64-.44,1-.64l.59,1c-.31.19-.61.39-.91.61Zm17.74-2c-.34-.14-.68-.27-1-.39l.37-1.07,1.09.41-.43,1.05Zm-13.9-.08-.41-1.05c.35-.14.72-.28,1.09-.4l.35,1.07-1,.38Zm9.68-1.09c-.35-.06-.71-.1-1.08-.14l.1-1.12c.39,0,.78.08,1.16.14l-.18,1.12Zm-5.45,0-.16-1.12c.38-.06.77-.1,1.16-.13l.09,1.13c-.37,0-.73.07-1.09.12Z"/>
      </g>
      <g id="knob-5" data-name="knob">
        <g>
          <path class="cls-6" d="M236.62,117.77a14,14,0,1,1-9.44-17.4A14,14,0,0,1,236.62,117.77Z"/>
          <path class="cls-2" d="M234.56,117.16a11.84,11.84,0,1,1-8-14.73A11.85,11.85,0,0,1,234.56,117.16Z"/>
          <polygon class="cls-7" points="225.44 108.15 224.41 107.84 226.67 100.22 227.7 100.52 225.44 108.15 225.44 108.15"/>
        </g>
        <path class="cls-7" d="M242.88,114.78h-1.13c0-.37,0-.74,0-1.1l1.12-.06c0,.38,0,.77,0,1.16Zm-38.22-.21h-1.13c0-.39,0-.78.05-1.17l1.12.08c0,.37,0,.73,0,1.1Zm36.58-4.13c-.09-.36-.18-.71-.29-1.06l1.08-.33c.11.37.22.74.3,1.12l-1.09.27Zm-36-.21-1.1-.27c.1-.38.21-.75.32-1.12l1.08.34c-.11.34-.21.7-.3,1Zm34.5-3.89c-.17-.33-.34-.65-.53-1l1-.57c.2.34.38.68.56,1l-1,.52Zm-32.94-.19-1-.53c.18-.34.37-.68.57-1l1,.59c-.19.31-.37.63-.54,1Zm30.5-3.44c-.24-.28-.48-.55-.74-.82l.82-.78c.27.28.52.57.78.86l-.86.74Zm-28-.16-.85-.75c.26-.29.52-.57.79-.85l.81.8c-.26.26-.51.53-.75.8Zm24.8-2.81c-.29-.21-.59-.41-.9-.61l.6-.95c.33.21.65.42,1,.65l-.66.91Zm-21.55-.11-.65-.93c.31-.22.64-.44,1-.64l.59,1c-.31.19-.61.39-.91.61Zm17.74-2c-.34-.14-.68-.27-1-.39l.37-1.07,1.09.41-.43,1.05Zm-13.9-.08-.42-1.05c.36-.14.73-.28,1.1-.4l.35,1.07-1,.38ZM226,96.45c-.36-.06-.73-.1-1.09-.14l.1-1.12c.39,0,.77.08,1.16.14L226,96.45Zm-5.46,0-.16-1.12c.38-.06.77-.1,1.15-.13l.1,1.13c-.37,0-.73.07-1.09.12Z"/>
      </g>
      <g id="knob-6" data-name="knob">
        <g>
          <path class="cls-6" d="M305.76,107.62A14,14,0,1,1,287,101.23,14,14,0,0,1,305.76,107.62Z"/>
          <path class="cls-2" d="M303.84,108.57A11.85,11.85,0,1,1,288,103.16,11.86,11.86,0,0,1,303.84,108.57Z"/>
          <polygon class="cls-7" points="291.02 108.13 290.06 108.6 286.55 101.47 287.51 100.99 291.02 108.13 291.02 108.13"/>
        </g>
        <path class="cls-7" d="M312.87,114.78h-1.13c0-.37,0-.74,0-1.1l1.13-.06c0,.38,0,.77,0,1.16Zm-38.21-.21h-1.13c0-.39,0-.78.05-1.17l1.12.08c0,.37,0,.73,0,1.1Zm36.57-4.13c-.08-.36-.18-.71-.28-1.06l1.08-.33c.11.37.21.74.3,1.12l-1.1.27Zm-36-.21-1.1-.27c.1-.38.2-.75.32-1.12l1.08.34c-.11.34-.22.7-.3,1Zm34.5-3.89c-.17-.33-.35-.65-.53-1l1-.57c.2.34.39.68.56,1l-1,.52Zm-32.94-.19-1-.53c.18-.34.37-.68.57-1l1,.59c-.19.31-.37.63-.54,1Zm30.5-3.44c-.24-.28-.48-.55-.74-.82l.81-.78c.27.28.53.57.79.86l-.86.74Zm-28-.16-.85-.75c.25-.29.52-.57.79-.85l.81.8c-.26.26-.51.53-.75.8Zm24.8-2.81-.9-.61.6-.95c.33.21.65.42,1,.65l-.66.91Zm-21.55-.11-.66-.93c.32-.22.64-.44,1-.64l.6,1c-.31.19-.62.39-.91.61Zm17.73-2q-.5-.21-1-.39l.37-1.07,1.08.41-.43,1.05Zm-13.89-.08-.42-1.05c.36-.14.73-.28,1.1-.4l.35,1.07-1,.38ZM296,96.45c-.35-.06-.72-.1-1.08-.14l.1-1.12c.39,0,.77.08,1.15.14L296,96.45Zm-5.45,0-.16-1.12c.38-.06.76-.1,1.15-.13l.09,1.13q-.54,0-1.08.12Z"/>
      </g>
    </g>
  </g>
</svg>
